{
	"patcher" : 	{
		"fileversion" : 1,
		"appversion" : 		{
			"major" : 7,
			"minor" : 0,
			"revision" : 6,
			"architecture" : "x86",
			"modernui" : 1
		}
,
		"rect" : [ 59.0, 104.0, 737.0, 658.0 ],
		"bglocked" : 0,
		"openinpresentation" : 0,
		"default_fontsize" : 12.0,
		"default_fontface" : 0,
		"default_fontname" : "Arial",
		"gridonopen" : 1,
		"gridsize" : [ 15.0, 15.0 ],
		"gridsnaponopen" : 1,
		"objectsnaponopen" : 1,
		"statusbarvisible" : 2,
		"toolbarvisible" : 1,
		"lefttoolbarpinned" : 0,
		"toptoolbarpinned" : 0,
		"righttoolbarpinned" : 0,
		"bottomtoolbarpinned" : 0,
		"toolbars_unpinned_last_save" : 0,
		"tallnewobj" : 0,
		"boxanimatetime" : 200,
		"enablehscroll" : 1,
		"enablevscroll" : 1,
		"devicewidth" : 0.0,
		"description" : "",
		"digest" : "",
		"tags" : "",
		"style" : "",
		"subpatcher_template" : "",
		"boxes" : [ 			{
				"box" : 				{
					"id" : "obj-12",
					"maxclass" : "newobj",
					"numinlets" : 1,
					"numoutlets" : 0,
					"patching_rect" : [ 27.916748, 247.416504, 46.0, 22.0 ],
					"style" : "",
					"text" : "s bonk"
				}

			}
, 			{
				"box" : 				{
					"id" : "obj-11",
					"maxclass" : "number",
					"numinlets" : 1,
					"numoutlets" : 2,
					"outlettype" : [ "", "bang" ],
					"parameter_enable" : 0,
					"patching_rect" : [ 206.0, 247.416504, 50.0, 22.0 ],
					"style" : ""
				}

			}
, 			{
				"box" : 				{
					"id" : "obj-9",
					"maxclass" : "number",
					"numinlets" : 1,
					"numoutlets" : 2,
					"outlettype" : [ "", "bang" ],
					"parameter_enable" : 0,
					"patching_rect" : [ 146.638916, 247.416504, 50.0, 22.0 ],
					"style" : ""
				}

			}
, 			{
				"box" : 				{
					"id" : "obj-7",
					"maxclass" : "number",
					"numinlets" : 1,
					"numoutlets" : 2,
					"outlettype" : [ "", "bang" ],
					"parameter_enable" : 0,
					"patching_rect" : [ 87.277832, 247.416504, 50.0, 22.0 ],
					"style" : ""
				}

			}
, 			{
				"box" : 				{
					"id" : "obj-3",
					"maxclass" : "newobj",
					"numinlets" : 1,
					"numoutlets" : 2,
					"outlettype" : [ "bang", "bang" ],
					"patching_rect" : [ 27.916748, 107.166382, 54.0, 22.0 ],
					"style" : "",
					"text" : "togedge"
				}

			}
, 			{
				"box" : 				{
					"id" : "obj-4",
					"maxclass" : "newobj",
					"numinlets" : 0,
					"numoutlets" : 1,
					"outlettype" : [ "" ],
					"patching_rect" : [ 27.916748, 76.916443, 38.0, 22.0 ],
					"style" : "",
					"text" : "r p15"
				}

			}
, 			{
				"box" : 				{
					"id" : "obj-5",
					"maxclass" : "toggle",
					"numinlets" : 1,
					"numoutlets" : 1,
					"outlettype" : [ "int" ],
					"parameter_enable" : 0,
					"patching_rect" : [ 27.916748, 138.749756, 58.666504, 58.666504 ],
					"style" : ""
				}

			}
, 			{
				"box" : 				{
					"id" : "obj-2",
					"maxclass" : "newobj",
					"numinlets" : 1,
					"numoutlets" : 4,
					"outlettype" : [ "bang", "", "", "" ],
					"patcher" : 					{
						"fileversion" : 1,
						"appversion" : 						{
							"major" : 7,
							"minor" : 0,
							"revision" : 6,
							"architecture" : "x86",
							"modernui" : 1
						}
,
						"rect" : [ 219.0, 176.0, 592.0, 569.0 ],
						"bglocked" : 0,
						"openinpresentation" : 0,
						"default_fontsize" : 12.0,
						"default_fontface" : 0,
						"default_fontname" : "Arial",
						"gridonopen" : 1,
						"gridsize" : [ 15.0, 15.0 ],
						"gridsnaponopen" : 1,
						"objectsnaponopen" : 1,
						"statusbarvisible" : 2,
						"toolbarvisible" : 1,
						"lefttoolbarpinned" : 0,
						"toptoolbarpinned" : 0,
						"righttoolbarpinned" : 0,
						"bottomtoolbarpinned" : 0,
						"toolbars_unpinned_last_save" : 0,
						"tallnewobj" : 0,
						"boxanimatetime" : 200,
						"enablehscroll" : 1,
						"enablevscroll" : 1,
						"devicewidth" : 0.0,
						"description" : "",
						"digest" : "",
						"tags" : "",
						"style" : "",
						"subpatcher_template" : "",
						"boxes" : [ 							{
								"box" : 								{
									"comment" : "offset out (int)",
									"id" : "obj-6",
									"maxclass" : "outlet",
									"numinlets" : 1,
									"numoutlets" : 0,
									"patching_rect" : [ 392.0, 288.833252, 30.0, 30.0 ],
									"style" : ""
								}

							}
, 							{
								"box" : 								{
									"comment" : "hi thresh out (int)",
									"id" : "obj-5",
									"maxclass" : "outlet",
									"numinlets" : 1,
									"numoutlets" : 0,
									"patching_rect" : [ 261.0, 292.833252, 30.0, 30.0 ],
									"style" : ""
								}

							}
, 							{
								"box" : 								{
									"comment" : "lo thresh out (int)",
									"id" : "obj-4",
									"maxclass" : "outlet",
									"numinlets" : 1,
									"numoutlets" : 0,
									"patching_rect" : [ 134.25, 292.833252, 30.0, 30.0 ],
									"style" : ""
								}

							}
, 							{
								"box" : 								{
									"comment" : "Gate Toggle",
									"id" : "obj-3",
									"maxclass" : "inlet",
									"numinlets" : 0,
									"numoutlets" : 1,
									"outlettype" : [ "int" ],
									"patching_rect" : [ 34.916748, 417.0, 30.0, 30.0 ],
									"style" : ""
								}

							}
, 							{
								"box" : 								{
									"comment" : "bonk bang out",
									"id" : "obj-2",
									"maxclass" : "outlet",
									"numinlets" : 1,
									"numoutlets" : 0,
									"patching_rect" : [ 34.916748, 568.0, 30.0, 30.0 ],
									"style" : ""
								}

							}
, 							{
								"box" : 								{
									"id" : "obj-191",
									"maxclass" : "number",
									"numinlets" : 1,
									"numoutlets" : 2,
									"outlettype" : [ "", "bang" ],
									"parameter_enable" : 0,
									"patching_rect" : [ 205.25, 296.833252, 50.0, 22.0 ],
									"style" : ""
								}

							}
, 							{
								"box" : 								{
									"id" : "obj-188",
									"maxclass" : "number",
									"numinlets" : 1,
									"numoutlets" : 2,
									"outlettype" : [ "", "bang" ],
									"parameter_enable" : 0,
									"patching_rect" : [ 74.25, 296.833252, 50.0, 22.0 ],
									"style" : ""
								}

							}
, 							{
								"box" : 								{
									"id" : "obj-177",
									"maxclass" : "newobj",
									"numinlets" : 2,
									"numoutlets" : 1,
									"outlettype" : [ "int" ],
									"patching_rect" : [ 74.25, 263.916626, 29.5, 22.0 ],
									"style" : "",
									"text" : "+ 0"
								}

							}
, 							{
								"box" : 								{
									"id" : "obj-176",
									"maxclass" : "message",
									"numinlets" : 2,
									"numoutlets" : 1,
									"outlettype" : [ "" ],
									"patching_rect" : [ 205.25, 229.499878, 50.0, 22.0 ],
									"style" : "",
									"text" : "0"
								}

							}
, 							{
								"box" : 								{
									"id" : "obj-174",
									"maxclass" : "message",
									"numinlets" : 2,
									"numoutlets" : 1,
									"outlettype" : [ "" ],
									"patching_rect" : [ 74.25, 229.499878, 50.0, 22.0 ],
									"style" : "",
									"text" : "0"
								}

							}
, 							{
								"box" : 								{
									"id" : "obj-172",
									"maxclass" : "newobj",
									"numinlets" : 1,
									"numoutlets" : 2,
									"outlettype" : [ "bang", "int" ],
									"patching_rect" : [ 335.5, 263.916626, 30.0, 22.0 ],
									"style" : "",
									"text" : "t b i"
								}

							}
, 							{
								"box" : 								{
									"id" : "obj-165",
									"maxclass" : "newobj",
									"numinlets" : 2,
									"numoutlets" : 1,
									"outlettype" : [ "int" ],
									"patching_rect" : [ 205.25, 263.916626, 29.5, 22.0 ],
									"style" : "",
									"text" : "+ 0"
								}

							}
, 							{
								"box" : 								{
									"id" : "obj-164",
									"maxclass" : "number",
									"numinlets" : 1,
									"numoutlets" : 2,
									"outlettype" : [ "", "bang" ],
									"parameter_enable" : 0,
									"patching_rect" : [ 335.5, 229.499878, 50.0, 22.0 ],
									"style" : ""
								}

							}
, 							{
								"box" : 								{
									"id" : "obj-141",
									"maxclass" : "newobj",
									"numinlets" : 6,
									"numoutlets" : 1,
									"outlettype" : [ "" ],
									"patching_rect" : [ 335.5, 198.916626, 112.0, 22.0 ],
									"style" : "",
									"text" : "scale 0 127 0 1000"
								}

							}
, 							{
								"box" : 								{
									"id" : "obj-140",
									"maxclass" : "comment",
									"numinlets" : 1,
									"numoutlets" : 0,
									"patching_rect" : [ 335.5, 140.416504, 55.0, 20.0 ],
									"style" : "",
									"text" : "offset",
									"textcolor" : [ 0.0, 0.0, 0.0, 1.0 ]
								}

							}
, 							{
								"box" : 								{
									"id" : "obj-122",
									"maxclass" : "newobj",
									"numinlets" : 0,
									"numoutlets" : 1,
									"outlettype" : [ "" ],
									"patching_rect" : [ 335.5, 163.416504, 31.0, 22.0 ],
									"style" : "",
									"text" : "r s3"
								}

							}
, 							{
								"box" : 								{
									"id" : "obj-115",
									"maxclass" : "newobj",
									"numinlets" : 6,
									"numoutlets" : 1,
									"outlettype" : [ "" ],
									"patching_rect" : [ 205.25, 198.916626, 112.0, 22.0 ],
									"style" : "",
									"text" : "scale 0 127 0 1000"
								}

							}
, 							{
								"box" : 								{
									"id" : "obj-113",
									"maxclass" : "newobj",
									"numinlets" : 6,
									"numoutlets" : 1,
									"outlettype" : [ "" ],
									"patching_rect" : [ 74.25, 198.916626, 112.0, 22.0 ],
									"style" : "",
									"text" : "scale 0 127 0 1000"
								}

							}
, 							{
								"box" : 								{
									"id" : "obj-111",
									"maxclass" : "newobj",
									"numinlets" : 0,
									"numoutlets" : 1,
									"outlettype" : [ "" ],
									"patching_rect" : [ 205.25, 163.416504, 31.0, 22.0 ],
									"style" : "",
									"text" : "r s2"
								}

							}
, 							{
								"box" : 								{
									"id" : "obj-108",
									"maxclass" : "newobj",
									"numinlets" : 0,
									"numoutlets" : 1,
									"outlettype" : [ "" ],
									"patching_rect" : [ 74.25, 163.416504, 31.0, 22.0 ],
									"style" : "",
									"text" : "r s1"
								}

							}
, 							{
								"box" : 								{
									"id" : "obj-84",
									"maxclass" : "comment",
									"numinlets" : 1,
									"numoutlets" : 0,
									"patching_rect" : [ 74.25, 140.416504, 55.0, 20.0 ],
									"style" : "",
									"text" : "lo thresh",
									"textcolor" : [ 0.0, 0.0, 0.0, 1.0 ]
								}

							}
, 							{
								"box" : 								{
									"id" : "obj-81",
									"maxclass" : "comment",
									"numinlets" : 1,
									"numoutlets" : 0,
									"patching_rect" : [ 205.25, 140.416504, 55.0, 20.0 ],
									"style" : "",
									"text" : "hi thresh",
									"textcolor" : [ 0.0, 0.0, 0.0, 1.0 ]
								}

							}
, 							{
								"box" : 								{
									"id" : "obj-105",
									"maxclass" : "newobj",
									"numinlets" : 2,
									"numoutlets" : 1,
									"outlettype" : [ "signal" ],
									"patching_rect" : [ 34.916748, 461.58313, 41.0, 22.0 ],
									"style" : "",
									"text" : "gate~"
								}

							}
, 							{
								"box" : 								{
									"id" : "obj-13",
									"maxclass" : "button",
									"numinlets" : 1,
									"numoutlets" : 1,
									"outlettype" : [ "bang" ],
									"patching_rect" : [ 34.916748, 531.58313, 23.0, 23.0 ],
									"style" : ""
								}

							}
, 							{
								"box" : 								{
									"id" : "obj-33",
									"maxclass" : "newobj",
									"numinlets" : 2,
									"numoutlets" : 1,
									"outlettype" : [ "" ],
									"patching_rect" : [ 74.25, 335.58313, 150.0, 22.0 ],
									"style" : "",
									"text" : "pack"
								}

							}
, 							{
								"box" : 								{
									"id" : "obj-1",
									"maxclass" : "newobj",
									"numinlets" : 1,
									"numoutlets" : 1,
									"outlettype" : [ "signal" ],
									"patching_rect" : [ 102.5, 417.0, 143.0, 22.0 ],
									"style" : "",
									"text" : "receive~ rawAudioSignal"
								}

							}
, 							{
								"box" : 								{
									"id" : "obj-83",
									"maxclass" : "newobj",
									"numinlets" : 1,
									"numoutlets" : 3,
									"outlettype" : [ "list", "list", "" ],
									"patching_rect" : [ 34.916748, 499.749756, 44.0, 22.0 ],
									"style" : "",
									"text" : "bonk~"
								}

							}
, 							{
								"box" : 								{
									"id" : "obj-16",
									"maxclass" : "message",
									"numinlets" : 2,
									"numoutlets" : 1,
									"outlettype" : [ "" ],
									"patching_rect" : [ 74.25, 373.58313, 76.0, 22.0 ],
									"style" : "",
									"text" : "thresh $1 $2"
								}

							}
 ],
						"lines" : [ 							{
								"patchline" : 								{
									"destination" : [ "obj-105", 1 ],
									"disabled" : 0,
									"hidden" : 0,
									"midpoints" : [ 112.0, 457.916626, 66.416748, 457.916626 ],
									"source" : [ "obj-1", 0 ]
								}

							}
, 							{
								"patchline" : 								{
									"destination" : [ "obj-83", 0 ],
									"disabled" : 0,
									"hidden" : 0,
									"source" : [ "obj-105", 0 ]
								}

							}
, 							{
								"patchline" : 								{
									"destination" : [ "obj-113", 0 ],
									"disabled" : 0,
									"hidden" : 0,
									"source" : [ "obj-108", 0 ]
								}

							}
, 							{
								"patchline" : 								{
									"destination" : [ "obj-115", 0 ],
									"disabled" : 0,
									"hidden" : 0,
									"source" : [ "obj-111", 0 ]
								}

							}
, 							{
								"patchline" : 								{
									"destination" : [ "obj-174", 1 ],
									"disabled" : 0,
									"hidden" : 0,
									"source" : [ "obj-113", 0 ]
								}

							}
, 							{
								"patchline" : 								{
									"destination" : [ "obj-174", 0 ],
									"disabled" : 0,
									"hidden" : 0,
									"source" : [ "obj-113", 0 ]
								}

							}
, 							{
								"patchline" : 								{
									"destination" : [ "obj-176", 1 ],
									"disabled" : 0,
									"hidden" : 0,
									"source" : [ "obj-115", 0 ]
								}

							}
, 							{
								"patchline" : 								{
									"destination" : [ "obj-176", 0 ],
									"disabled" : 0,
									"hidden" : 0,
									"source" : [ "obj-115", 0 ]
								}

							}
, 							{
								"patchline" : 								{
									"destination" : [ "obj-141", 0 ],
									"disabled" : 0,
									"hidden" : 0,
									"source" : [ "obj-122", 0 ]
								}

							}
, 							{
								"patchline" : 								{
									"destination" : [ "obj-2", 0 ],
									"disabled" : 0,
									"hidden" : 0,
									"source" : [ "obj-13", 0 ]
								}

							}
, 							{
								"patchline" : 								{
									"destination" : [ "obj-164", 0 ],
									"disabled" : 0,
									"hidden" : 0,
									"source" : [ "obj-141", 0 ]
								}

							}
, 							{
								"patchline" : 								{
									"destination" : [ "obj-83", 0 ],
									"disabled" : 0,
									"hidden" : 0,
									"midpoints" : [ 83.75, 447.0, 87.0, 447.0, 87.0, 492.0, 44.416748, 492.0 ],
									"source" : [ "obj-16", 0 ]
								}

							}
, 							{
								"patchline" : 								{
									"destination" : [ "obj-172", 0 ],
									"disabled" : 0,
									"hidden" : 0,
									"source" : [ "obj-164", 0 ]
								}

							}
, 							{
								"patchline" : 								{
									"destination" : [ "obj-6", 0 ],
									"disabled" : 0,
									"hidden" : 0,
									"source" : [ "obj-164", 0 ]
								}

							}
, 							{
								"patchline" : 								{
									"destination" : [ "obj-191", 0 ],
									"disabled" : 0,
									"hidden" : 0,
									"source" : [ "obj-165", 0 ]
								}

							}
, 							{
								"patchline" : 								{
									"destination" : [ "obj-165", 1 ],
									"disabled" : 0,
									"hidden" : 0,
									"source" : [ "obj-172", 1 ]
								}

							}
, 							{
								"patchline" : 								{
									"destination" : [ "obj-174", 0 ],
									"disabled" : 0,
									"hidden" : 0,
									"source" : [ "obj-172", 0 ]
								}

							}
, 							{
								"patchline" : 								{
									"destination" : [ "obj-176", 0 ],
									"disabled" : 0,
									"hidden" : 0,
									"source" : [ "obj-172", 0 ]
								}

							}
, 							{
								"patchline" : 								{
									"destination" : [ "obj-177", 1 ],
									"disabled" : 0,
									"hidden" : 0,
									"source" : [ "obj-172", 1 ]
								}

							}
, 							{
								"patchline" : 								{
									"destination" : [ "obj-177", 0 ],
									"disabled" : 0,
									"hidden" : 0,
									"source" : [ "obj-174", 0 ]
								}

							}
, 							{
								"patchline" : 								{
									"destination" : [ "obj-165", 0 ],
									"disabled" : 0,
									"hidden" : 0,
									"source" : [ "obj-176", 0 ]
								}

							}
, 							{
								"patchline" : 								{
									"destination" : [ "obj-188", 0 ],
									"disabled" : 0,
									"hidden" : 0,
									"source" : [ "obj-177", 0 ]
								}

							}
, 							{
								"patchline" : 								{
									"destination" : [ "obj-33", 0 ],
									"disabled" : 0,
									"hidden" : 0,
									"source" : [ "obj-188", 0 ]
								}

							}
, 							{
								"patchline" : 								{
									"destination" : [ "obj-4", 0 ],
									"disabled" : 0,
									"hidden" : 0,
									"source" : [ "obj-188", 0 ]
								}

							}
, 							{
								"patchline" : 								{
									"destination" : [ "obj-33", 1 ],
									"disabled" : 0,
									"hidden" : 0,
									"source" : [ "obj-191", 0 ]
								}

							}
, 							{
								"patchline" : 								{
									"destination" : [ "obj-5", 0 ],
									"disabled" : 0,
									"hidden" : 0,
									"source" : [ "obj-191", 0 ]
								}

							}
, 							{
								"patchline" : 								{
									"destination" : [ "obj-105", 0 ],
									"disabled" : 0,
									"hidden" : 0,
									"source" : [ "obj-3", 0 ]
								}

							}
, 							{
								"patchline" : 								{
									"destination" : [ "obj-16", 0 ],
									"disabled" : 0,
									"hidden" : 0,
									"source" : [ "obj-33", 0 ]
								}

							}
, 							{
								"patchline" : 								{
									"destination" : [ "obj-13", 0 ],
									"disabled" : 0,
									"hidden" : 0,
									"source" : [ "obj-83", 0 ]
								}

							}
 ]
					}
,
					"patching_rect" : [ 27.916748, 212.416504, 197.083252, 22.0 ],
					"saved_object_attributes" : 					{
						"description" : "",
						"digest" : "",
						"globalpatchername" : "",
						"style" : "",
						"tags" : ""
					}
,
					"style" : "",
					"text" : "p bonkcontroller"
				}

			}
, 			{
				"box" : 				{
					"fontface" : 3,
					"fontname" : "Avenir Book",
					"fontsize" : 16.0,
					"id" : "obj-42",
					"maxclass" : "comment",
					"numinlets" : 1,
					"numoutlets" : 0,
					"patching_rect" : [ 15.75, 15.416504, 257.0, 28.0 ],
					"style" : "",
					"text" : "Bonk~",
					"textcolor" : [ 1.0, 1.0, 1.0, 1.0 ],
					"underline" : 1
				}

			}
, 			{
				"box" : 				{
					"id" : "obj-121",
					"maxclass" : "button",
					"numinlets" : 1,
					"numoutlets" : 1,
					"outlettype" : [ "bang" ],
					"patching_rect" : [ 109.25, 88.41626, 109.0, 109.0 ],
					"style" : ""
				}

			}
, 			{
				"box" : 				{
					"id" : "obj-120",
					"maxclass" : "newobj",
					"numinlets" : 0,
					"numoutlets" : 1,
					"outlettype" : [ "" ],
					"patching_rect" : [ 109.25, 61.083008, 44.0, 22.0 ],
					"style" : "",
					"text" : "r bonk"
				}

			}
, 			{
				"box" : 				{
					"angle" : 270.0,
					"background" : 1,
					"border" : 1,
					"bordercolor" : [ 0.803922, 0.898039, 0.909804, 1.0 ],
					"grad1" : [ 0.454959, 0.684788, 0.824976, 1.0 ],
					"grad2" : [ 0.560317, 0.570942, 0.601066, 1.0 ],
					"id" : "obj-43",
					"maxclass" : "panel",
					"mode" : 1,
					"numinlets" : 1,
					"numoutlets" : 0,
					"patching_rect" : [ 11.25, 11.041382, 272.0, 287.083252 ],
					"proportion" : 0.18599,
					"pt1" : [ 0.5, 0.05 ],
					"pt2" : [ 0.5, 1.217391 ],
					"style" : ""
				}

			}
 ],
		"lines" : [ 			{
				"patchline" : 				{
					"destination" : [ "obj-121", 0 ],
					"disabled" : 0,
					"hidden" : 0,
					"source" : [ "obj-120", 0 ]
				}

			}
, 			{
				"patchline" : 				{
					"destination" : [ "obj-11", 0 ],
					"disabled" : 0,
					"hidden" : 0,
					"source" : [ "obj-2", 3 ]
				}

			}
, 			{
				"patchline" : 				{
					"destination" : [ "obj-12", 0 ],
					"disabled" : 0,
					"hidden" : 0,
					"source" : [ "obj-2", 0 ]
				}

			}
, 			{
				"patchline" : 				{
					"destination" : [ "obj-7", 0 ],
					"disabled" : 0,
					"hidden" : 0,
					"source" : [ "obj-2", 1 ]
				}

			}
, 			{
				"patchline" : 				{
					"destination" : [ "obj-9", 0 ],
					"disabled" : 0,
					"hidden" : 0,
					"source" : [ "obj-2", 2 ]
				}

			}
, 			{
				"patchline" : 				{
					"destination" : [ "obj-5", 0 ],
					"disabled" : 0,
					"hidden" : 0,
					"source" : [ "obj-3", 0 ]
				}

			}
, 			{
				"patchline" : 				{
					"destination" : [ "obj-3", 0 ],
					"disabled" : 0,
					"hidden" : 0,
					"source" : [ "obj-4", 0 ]
				}

			}
, 			{
				"patchline" : 				{
					"destination" : [ "obj-2", 0 ],
					"disabled" : 0,
					"hidden" : 0,
					"source" : [ "obj-5", 0 ]
				}

			}
 ],
		"dependency_cache" : [ 			{
				"name" : "bonk~.mxo",
				"type" : "iLaX"
			}
 ],
		"embedsnapshot" : 0
	}

}
