{
	"patcher" : 	{
		"fileversion" : 1,
		"appversion" : 		{
			"major" : 7,
			"minor" : 0,
			"revision" : 6,
			"architecture" : "x86",
			"modernui" : 1
		}
,
		"rect" : [ 199.0, 173.0, 965.0, 558.0 ],
		"bglocked" : 0,
		"openinpresentation" : 0,
		"default_fontsize" : 12.0,
		"default_fontface" : 0,
		"default_fontname" : "Arial",
		"gridonopen" : 1,
		"gridsize" : [ 15.0, 15.0 ],
		"gridsnaponopen" : 1,
		"objectsnaponopen" : 1,
		"statusbarvisible" : 2,
		"toolbarvisible" : 1,
		"lefttoolbarpinned" : 0,
		"toptoolbarpinned" : 0,
		"righttoolbarpinned" : 0,
		"bottomtoolbarpinned" : 0,
		"toolbars_unpinned_last_save" : 0,
		"tallnewobj" : 0,
		"boxanimatetime" : 200,
		"enablehscroll" : 1,
		"enablevscroll" : 1,
		"devicewidth" : 0.0,
		"description" : "",
		"digest" : "",
		"tags" : "",
		"style" : "",
		"subpatcher_template" : "",
		"boxes" : [ 			{
				"box" : 				{
					"id" : "obj-15",
					"maxclass" : "comment",
					"numinlets" : 1,
					"numoutlets" : 0,
					"patching_rect" : [ 779.0, 98.0, 150.0, 20.0 ],
					"style" : "",
					"text" : "trigger is INT"
				}

			}
, 			{
				"box" : 				{
					"id" : "obj-32",
					"maxclass" : "newobj",
					"numinlets" : 1,
					"numoutlets" : 3,
					"outlettype" : [ "", "", "" ],
					"patching_rect" : [ 606.0, 260.0, 45.0, 22.0 ],
					"style" : "",
					"text" : "unjoin"
				}

			}
, 			{
				"box" : 				{
					"id" : "obj-31",
					"maxclass" : "incdec",
					"numinlets" : 1,
					"numoutlets" : 1,
					"outlettype" : [ "float" ],
					"parameter_enable" : 0,
					"patching_rect" : [ 661.0, 55.0, 20.0, 24.0 ],
					"style" : ""
				}

			}
, 			{
				"box" : 				{
					"id" : "obj-30",
					"maxclass" : "message",
					"numinlets" : 2,
					"numoutlets" : 1,
					"outlettype" : [ "" ],
					"patching_rect" : [ 606.0, 200.0, 47.0, 22.0 ],
					"style" : "",
					"text" : "get $1"
				}

			}
, 			{
				"box" : 				{
					"id" : "obj-28",
					"maxclass" : "newobj",
					"numinlets" : 1,
					"numoutlets" : 2,
					"outlettype" : [ "bang", "" ],
					"patching_rect" : [ 606.0, 135.0, 31.0, 22.0 ],
					"style" : "",
					"text" : "t b l"
				}

			}
, 			{
				"box" : 				{
					"id" : "obj-27",
					"linecount" : 2,
					"maxclass" : "newobj",
					"numinlets" : 3,
					"numoutlets" : 2,
					"outlettype" : [ "", "" ],
					"patching_rect" : [ 606.0, 90.0, 171.0, 35.0 ],
					"style" : "",
					"text" : "combine clips[ 0 ]::filename @triggers 1"
				}

			}
, 			{
				"box" : 				{
					"id" : "obj-23",
					"maxclass" : "number",
					"maximum" : 4,
					"minimum" : 0,
					"numinlets" : 1,
					"numoutlets" : 2,
					"outlettype" : [ "", "bang" ],
					"parameter_enable" : 0,
					"patching_rect" : [ 606.0, 55.0, 50.0, 22.0 ],
					"style" : ""
				}

			}
, 			{
				"box" : 				{
					"id" : "obj-21",
					"maxclass" : "message",
					"numinlets" : 2,
					"numoutlets" : 1,
					"outlettype" : [ "" ],
					"patching_rect" : [ 606.0, 170.0, 136.0, 22.0 ],
					"style" : "",
					"text" : "clips[4]::filename"
				}

			}
, 			{
				"box" : 				{
					"id" : "obj-16",
					"maxclass" : "message",
					"numinlets" : 2,
					"numoutlets" : 1,
					"outlettype" : [ "" ],
					"patching_rect" : [ 606.0, 295.0, 205.0, 22.0 ],
					"style" : "",
					"text" : "crashtest.mov"
				}

			}
, 			{
				"box" : 				{
					"id" : "obj-14",
					"maxclass" : "newobj",
					"numinlets" : 2,
					"numoutlets" : 4,
					"outlettype" : [ "dictionary", "", "", "" ],
					"patching_rect" : [ 606.0, 230.0, 50.5, 22.0 ],
					"saved_object_attributes" : 					{
						"embed" : 0,
						"parameter_enable" : 0
					}
,
					"style" : "",
					"text" : "dict"
				}

			}
, 			{
				"box" : 				{
					"id" : "obj-12",
					"maxclass" : "dict.view",
					"numinlets" : 1,
					"numoutlets" : 0,
					"patching_rect" : [ 353.0, 215.0, 239.0, 212.0 ],
					"style" : ""
				}

			}
, 			{
				"box" : 				{
					"id" : "obj-11",
					"maxclass" : "message",
					"numinlets" : 2,
					"numoutlets" : 1,
					"outlettype" : [ "" ],
					"patching_rect" : [ 132.0, 68.0, 67.0, 22.0 ],
					"style" : "",
					"text" : "getcontent"
				}

			}
, 			{
				"box" : 				{
					"clipheight" : 43.0,
					"data" : 					{
						"clips" : [ 							{
								"filename" : "che_darkroom.mov",
								"filekind" : "moviefile",
								"loop" : 0,
								"content_state" : 								{
									"outputmode" : [ 1 ],
									"out_name" : [ "u991001116" ],
									"dim" : [ 1, 1 ],
									"usesrcrect" : [ 0 ],
									"time_secs" : [ 0.0 ],
									"time" : [ 0 ],
									"srcrect" : [ 0, 0, 1, 1 ],
									"automatic" : [ 0 ],
									"autostart" : [ 1 ],
									"loopstart" : [ 0 ],
									"colormode" : [ "argb" ],
									"looppoints" : [ 0, 0 ],
									"output_texture" : [ 0 ],
									"engine" : [ "avf" ],
									"usedstrect" : [ 0 ],
									"interp" : [ 0 ],
									"adapt" : [ 1 ],
									"loopreport" : [ 0 ],
									"dstrect" : [ 0, 0, 1, 1 ],
									"moviefile" : [ "" ],
									"loopend" : [ 0 ],
									"texture_name" : [ "u350001114" ],
									"drawto" : [ "" ],
									"position" : [ 0.0 ],
									"framereport" : [ 0 ],
									"vol" : [ 1.0 ],
									"rate" : [ 1.0 ],
									"unique" : [ 0 ]
								}

							}
, 							{
								"filename" : "aer_grateleanin.mov",
								"filekind" : "moviefile",
								"loop" : 0,
								"content_state" : 								{
									"outputmode" : [ 1 ],
									"out_name" : [ "u991001116" ],
									"dim" : [ 1, 1 ],
									"usesrcrect" : [ 0 ],
									"time_secs" : [ 0.0 ],
									"time" : [ 0 ],
									"srcrect" : [ 0, 0, 1, 1 ],
									"automatic" : [ 0 ],
									"autostart" : [ 1 ],
									"loopstart" : [ 0 ],
									"colormode" : [ "argb" ],
									"looppoints" : [ 0, 0 ],
									"output_texture" : [ 0 ],
									"engine" : [ "avf" ],
									"usedstrect" : [ 0 ],
									"interp" : [ 0 ],
									"adapt" : [ 1 ],
									"loopreport" : [ 0 ],
									"dstrect" : [ 0, 0, 1, 1 ],
									"moviefile" : [ "" ],
									"loopend" : [ 0 ],
									"texture_name" : [ "u350001114" ],
									"drawto" : [ "" ],
									"position" : [ 0.0 ],
									"framereport" : [ 0 ],
									"vol" : [ 1.0 ],
									"rate" : [ 1.0 ],
									"unique" : [ 0 ]
								}

							}
 ]
					}
,
					"id" : "obj-8",
					"maxclass" : "jit.playlist",
					"numinlets" : 1,
					"numoutlets" : 3,
					"outlettype" : [ "jit_matrix", "", "dictionary" ],
					"patching_rect" : [ 132.0, 98.0, 240.0, 88.0 ],
					"style" : ""
				}

			}
, 			{
				"box" : 				{
					"id" : "obj-7",
					"maxclass" : "message",
					"numinlets" : 2,
					"numoutlets" : 1,
					"outlettype" : [ "" ],
					"patching_rect" : [ 16.0, 411.0, 36.0, 22.0 ],
					"style" : "",
					"text" : "write"
				}

			}
, 			{
				"box" : 				{
					"id" : "obj-5",
					"maxclass" : "comment",
					"numinlets" : 1,
					"numoutlets" : 0,
					"patching_rect" : [ 8.0, 11.0, 150.0, 20.0 ],
					"style" : "",
					"text" : "PLAYLISTING TOOL"
				}

			}
, 			{
				"box" : 				{
					"id" : "obj-1",
					"maxclass" : "newobj",
					"numinlets" : 1,
					"numoutlets" : 3,
					"outlettype" : [ "", "bang", "int" ],
					"patching_rect" : [ 16.0, 443.0, 71.0, 22.0 ],
					"style" : "",
					"text" : "text"
				}

			}
 ],
		"lines" : [ 			{
				"patchline" : 				{
					"destination" : [ "obj-8", 0 ],
					"disabled" : 0,
					"hidden" : 0,
					"source" : [ "obj-11", 0 ]
				}

			}
, 			{
				"patchline" : 				{
					"destination" : [ "obj-32", 0 ],
					"disabled" : 0,
					"hidden" : 0,
					"source" : [ "obj-14", 1 ]
				}

			}
, 			{
				"patchline" : 				{
					"destination" : [ "obj-30", 0 ],
					"disabled" : 0,
					"hidden" : 0,
					"source" : [ "obj-21", 0 ]
				}

			}
, 			{
				"patchline" : 				{
					"destination" : [ "obj-27", 1 ],
					"disabled" : 0,
					"hidden" : 0,
					"source" : [ "obj-23", 0 ]
				}

			}
, 			{
				"patchline" : 				{
					"destination" : [ "obj-31", 0 ],
					"disabled" : 0,
					"hidden" : 0,
					"source" : [ "obj-23", 0 ]
				}

			}
, 			{
				"patchline" : 				{
					"destination" : [ "obj-28", 0 ],
					"disabled" : 0,
					"hidden" : 0,
					"source" : [ "obj-27", 0 ]
				}

			}
, 			{
				"patchline" : 				{
					"destination" : [ "obj-21", 1 ],
					"disabled" : 0,
					"hidden" : 0,
					"source" : [ "obj-28", 1 ]
				}

			}
, 			{
				"patchline" : 				{
					"destination" : [ "obj-21", 0 ],
					"disabled" : 0,
					"hidden" : 0,
					"source" : [ "obj-28", 0 ]
				}

			}
, 			{
				"patchline" : 				{
					"destination" : [ "obj-14", 0 ],
					"disabled" : 0,
					"hidden" : 0,
					"source" : [ "obj-30", 0 ]
				}

			}
, 			{
				"patchline" : 				{
					"destination" : [ "obj-23", 0 ],
					"disabled" : 0,
					"hidden" : 0,
					"source" : [ "obj-31", 0 ]
				}

			}
, 			{
				"patchline" : 				{
					"destination" : [ "obj-16", 1 ],
					"disabled" : 0,
					"hidden" : 0,
					"source" : [ "obj-32", 1 ]
				}

			}
, 			{
				"patchline" : 				{
					"destination" : [ "obj-1", 0 ],
					"disabled" : 0,
					"hidden" : 0,
					"source" : [ "obj-7", 0 ]
				}

			}
, 			{
				"patchline" : 				{
					"destination" : [ "obj-12", 0 ],
					"disabled" : 0,
					"hidden" : 0,
					"source" : [ "obj-8", 2 ]
				}

			}
 ],
		"dependency_cache" : [ 			{
				"name" : "che_darkroom.mov",
				"bootpath" : "~/Documents/Max 7/Library/jit-hausu/video",
				"type" : "MooV",
				"implicit" : 1
			}
, 			{
				"name" : "aer_grateleanin.mov",
				"bootpath" : "~/Documents/Max 7/Library/jit-hausu/video",
				"type" : "MooV",
				"implicit" : 1
			}
 ],
		"embedsnapshot" : 0
	}

}
