{
	"patcher" : 	{
		"fileversion" : 1,
		"appversion" : 		{
			"major" : 7,
			"minor" : 3,
			"revision" : 4,
			"architecture" : "x64",
			"modernui" : 1
		}
,
		"rect" : [ 995.0, 85.0, 79.0, 400.0 ],
		"bglocked" : 0,
		"openinpresentation" : 1,
		"default_fontsize" : 12.0,
		"default_fontface" : 0,
		"default_fontname" : "Arial",
		"gridonopen" : 2,
		"gridsize" : [ 15.0, 15.0 ],
		"gridsnaponopen" : 2,
		"objectsnaponopen" : 1,
		"statusbarvisible" : 2,
		"toolbarvisible" : 1,
		"lefttoolbarpinned" : 0,
		"toptoolbarpinned" : 0,
		"righttoolbarpinned" : 0,
		"bottomtoolbarpinned" : 0,
		"toolbars_unpinned_last_save" : 0,
		"tallnewobj" : 0,
		"boxanimatetime" : 200,
		"enablehscroll" : 1,
		"enablevscroll" : 1,
		"devicewidth" : 0.0,
		"description" : "",
		"digest" : "",
		"tags" : "",
		"style" : "",
		"subpatcher_template" : "",
		"boxes" : [ 			{
				"box" : 				{
					"id" : "obj-11",
					"maxclass" : "newobj",
					"numinlets" : 2,
					"numoutlets" : 1,
					"outlettype" : [ "float" ],
					"patching_rect" : [ 270.0, 150.583496, 42.0, 22.0 ],
					"style" : "",
					"text" : "* 100."
				}

			}
, 			{
				"box" : 				{
					"comment" : "xfade in (0., 1.)",
					"id" : "obj-8",
					"index" : 2,
					"maxclass" : "inlet",
					"numinlets" : 0,
					"numoutlets" : 1,
					"outlettype" : [ "int" ],
					"patching_rect" : [ 270.0, 60.0, 30.0, 30.0 ],
					"style" : ""
				}

			}
, 			{
				"box" : 				{
					"id" : "obj-9",
					"maxclass" : "newobj",
					"numinlets" : 1,
					"numoutlets" : 2,
					"outlettype" : [ "jit_matrix", "" ],
					"patching_rect" : [ 58.5, 345.0, 249.0, 22.0 ],
					"style" : "",
					"text" : "jit.gl.videoplane mainout @transform_reset 2"
				}

			}
, 			{
				"box" : 				{
					"fontface" : 2,
					"fontsize" : 10.0,
					"id" : "obj-7",
					"maxclass" : "comment",
					"numinlets" : 1,
					"numoutlets" : 0,
					"patching_rect" : [ 515.0, 122.0, 80.0, 18.0 ],
					"presentation" : 1,
					"presentation_rect" : [ 0.0, 60.0, 135.0, 18.0 ],
					"style" : "",
					"text" : "blending mode",
					"textjustification" : 1
				}

			}
, 			{
				"box" : 				{
					"fontface" : 2,
					"fontsize" : 10.0,
					"id" : "obj-86",
					"maxclass" : "comment",
					"numinlets" : 1,
					"numoutlets" : 0,
					"patching_rect" : [ 649.5, 162.0, 82.0, 18.0 ],
					"presentation" : 1,
					"presentation_rect" : [ 150.0, 60.0, 120.0, 18.0 ],
					"style" : "",
					"text" : "context",
					"textjustification" : 1
				}

			}
, 			{
				"box" : 				{
					"id" : "obj-84",
					"maxclass" : "newobj",
					"numinlets" : 1,
					"numoutlets" : 1,
					"outlettype" : [ "" ],
					"patching_rect" : [ 649.5, 225.0, 94.0, 22.0 ],
					"style" : "",
					"text" : "prepend drawto"
				}

			}
, 			{
				"box" : 				{
					"fontsize" : 10.0,
					"id" : "obj-85",
					"items" : [ "vid-ctx", ",", "3d-ctx", ",", "mainout" ],
					"maxclass" : "umenu",
					"numinlets" : 1,
					"numoutlets" : 3,
					"outlettype" : [ "int", "", "" ],
					"parameter_enable" : 0,
					"patching_rect" : [ 649.5, 186.0, 94.0, 20.0 ],
					"presentation" : 1,
					"presentation_rect" : [ 150.0, 75.0, 123.225037, 20.0 ],
					"style" : "",
					"varname" : "context"
				}

			}
, 			{
				"box" : 				{
					"fontface" : 3,
					"fontsize" : 16.0,
					"id" : "obj-27",
					"maxclass" : "comment",
					"numinlets" : 1,
					"numoutlets" : 0,
					"patching_rect" : [ 390.0, 301.5, 144.0, 25.0 ],
					"presentation" : 1,
					"presentation_rect" : [ 0.0, 0.0, 101.0, 25.0 ],
					"style" : "",
					"text" : "MIXER"
				}

			}
, 			{
				"box" : 				{
					"comment" : "Texture Out",
					"id" : "obj-5",
					"index" : 1,
					"maxclass" : "outlet",
					"numinlets" : 1,
					"numoutlets" : 0,
					"patching_rect" : [ 21.0, 375.0, 30.0, 30.0 ],
					"style" : ""
				}

			}
, 			{
				"box" : 				{
					"fontface" : 2,
					"id" : "obj-23",
					"maxclass" : "comment",
					"numinlets" : 1,
					"numoutlets" : 0,
					"patching_rect" : [ 454.5, 34.0, 150.0, 20.0 ],
					"style" : "",
					"text" : "blend",
					"textjustification" : 1
				}

			}
, 			{
				"box" : 				{
					"fontface" : 2,
					"fontsize" : 10.0,
					"id" : "obj-83",
					"maxclass" : "comment",
					"numinlets" : 1,
					"numoutlets" : 0,
					"patching_rect" : [ 112.0, 34.0, 131.0, 18.0 ],
					"presentation" : 1,
					"presentation_rect" : [ 0.0, 15.0, 273.225037, 18.0 ],
					"style" : "",
					"text" : "xfade",
					"textjustification" : 1
				}

			}
, 			{
				"box" : 				{
					"fontsize" : 10.0,
					"id" : "obj-155",
					"items" : [ "alphablend", ",", "add", ",", "multiply", ",", "screen", ",", "exclusion", ",", "colorblend", ",", "coloradd", ",", "alphaadd" ],
					"maxclass" : "umenu",
					"numinlets" : 1,
					"numoutlets" : 3,
					"outlettype" : [ "int", "", "" ],
					"parameter_enable" : 0,
					"patching_rect" : [ 494.0, 185.615051, 121.0, 22.0 ],
					"presentation" : 1,
					"presentation_rect" : [ 0.0, 75.0, 92.0, 20.0 ],
					"style" : "default",
					"varname" : "blendingmode"
				}

			}
, 			{
				"box" : 				{
					"id" : "obj-68",
					"maxclass" : "message",
					"numinlets" : 2,
					"numoutlets" : 1,
					"outlettype" : [ "" ],
					"patching_rect" : [ 545.0, 225.0, 57.0, 22.0 ],
					"style" : "",
					"text" : "blend $1"
				}

			}
, 			{
				"box" : 				{
					"id" : "obj-6",
					"maxclass" : "message",
					"numinlets" : 2,
					"numoutlets" : 1,
					"outlettype" : [ "" ],
					"patching_rect" : [ 150.0, 225.0, 57.0, 22.0 ],
					"style" : "",
					"text" : "xfade $1"
				}

			}
, 			{
				"box" : 				{
					"fontsize" : 10.0,
					"id" : "obj-69",
					"items" : [ "s1", ",", "s2", ",", "s3", ",", "s4", ",", "s5", ",", "s6", ",", "s7", ",", "s8", ",", "k1", ",", "k2", ",", "k3", ",", "k4", ",", "k5", ",", "k6", ",", "k7", ",", "k8", ",", "so1", ",", "so2", ",", "so3", ",", "so4", ",", "so5", ",", "so6", ",", "so7", ",", "so8", ",", "mu1", ",", "mu2", ",", "mu3", ",", "mu4", ",", "mu5", ",", "mu6", ",", "mu7", ",", "mu8", ",", "re1", ",", "re2", ",", "re3", ",", "re4", ",", "re5", ",", "re6", ",", "re7", ",", "re8", ",", "back", ",", "forward", ",", "empty" ],
					"maxclass" : "umenu",
					"numinlets" : 1,
					"numoutlets" : 3,
					"outlettype" : [ "int", "", "" ],
					"parameter_enable" : 0,
					"patching_rect" : [ 494.0, 59.0, 71.0, 22.0 ],
					"presentation" : 1,
					"presentation_rect" : [ 92.0, 75.0, 43.0, 20.0 ],
					"style" : "",
					"varname" : "midi-blend"
				}

			}
, 			{
				"box" : 				{
					"fontsize" : 10.0,
					"id" : "obj-70",
					"items" : [ "s1", ",", "s2", ",", "s3", ",", "s4", ",", "s5", ",", "s6", ",", "s7", ",", "s8", ",", "k1", ",", "k2", ",", "k3", ",", "k4", ",", "k5", ",", "k6", ",", "k7", ",", "k8", ",", "so1", ",", "so2", ",", "so3", ",", "so4", ",", "so5", ",", "so6", ",", "so7", ",", "so8", ",", "mu1", ",", "mu2", ",", "mu3", ",", "mu4", ",", "mu5", ",", "mu6", ",", "mu7", ",", "mu8", ",", "re1", ",", "re2", ",", "re3", ",", "re4", ",", "re5", ",", "re6", ",", "re7", ",", "re8", ",", "back", ",", "forward", ",", "empty" ],
					"maxclass" : "umenu",
					"numinlets" : 1,
					"numoutlets" : 3,
					"outlettype" : [ "int", "", "" ],
					"parameter_enable" : 0,
					"patching_rect" : [ 150.0, 59.0, 71.0, 22.0 ],
					"presentation" : 1,
					"presentation_rect" : [ 225.0, 30.0, 48.225037, 20.0 ],
					"style" : "",
					"varname" : "midi-xfade"
				}

			}
, 			{
				"box" : 				{
					"id" : "obj-62",
					"maxclass" : "newobj",
					"numinlets" : 6,
					"numoutlets" : 1,
					"outlettype" : [ "" ],
					"patching_rect" : [ 494.0, 150.583496, 92.0, 22.0 ],
					"style" : "",
					"text" : "scale 0 127 0 7"
				}

			}
, 			{
				"box" : 				{
					"id" : "obj-71",
					"maxclass" : "newobj",
					"numinlets" : 6,
					"numoutlets" : 1,
					"outlettype" : [ "" ],
					"patching_rect" : [ 150.0, 150.583496, 105.0, 22.0 ],
					"style" : "",
					"text" : "scale 0 127 0. 99."
				}

			}
, 			{
				"box" : 				{
					"id" : "obj-72",
					"maxclass" : "newobj",
					"numinlets" : 1,
					"numoutlets" : 1,
					"outlettype" : [ "" ],
					"patching_rect" : [ 150.0, 90.0, 74.0, 22.0 ],
					"style" : "",
					"text" : "prepend set"
				}

			}
, 			{
				"box" : 				{
					"id" : "obj-76",
					"maxclass" : "newobj",
					"numinlets" : 1,
					"numoutlets" : 1,
					"outlettype" : [ "" ],
					"patching_rect" : [ 150.0, 121.0, 19.0, 22.0 ],
					"style" : "",
					"text" : "r"
				}

			}
, 			{
				"box" : 				{
					"id" : "obj-77",
					"maxclass" : "newobj",
					"numinlets" : 1,
					"numoutlets" : 1,
					"outlettype" : [ "" ],
					"patching_rect" : [ 494.0, 90.0, 74.0, 22.0 ],
					"style" : "",
					"text" : "prepend set"
				}

			}
, 			{
				"box" : 				{
					"id" : "obj-81",
					"maxclass" : "newobj",
					"numinlets" : 1,
					"numoutlets" : 1,
					"outlettype" : [ "" ],
					"patching_rect" : [ 494.0, 121.0, 19.0, 22.0 ],
					"style" : "",
					"text" : "r"
				}

			}
, 			{
				"box" : 				{
					"floatoutput" : 1,
					"id" : "obj-82",
					"maxclass" : "slider",
					"mult" : 0.01,
					"numinlets" : 1,
					"numoutlets" : 1,
					"orientation" : 1,
					"outlettype" : [ "" ],
					"parameter_enable" : 0,
					"patching_rect" : [ 150.0, 179.615051, 138.0, 34.0 ],
					"presentation" : 1,
					"presentation_rect" : [ 0.0, 30.0, 225.0, 20.0 ],
					"size" : 100.0,
					"style" : "",
					"varname" : "xfade"
				}

			}
, 			{
				"box" : 				{
					"comment" : "Texture 2 In",
					"id" : "obj-4",
					"index" : 3,
					"maxclass" : "inlet",
					"numinlets" : 0,
					"numoutlets" : 1,
					"outlettype" : [ "jit_matrix" ],
					"patching_rect" : [ 761.0, 43.0, 30.0, 30.0 ],
					"style" : ""
				}

			}
, 			{
				"box" : 				{
					"id" : "obj-20",
					"maxclass" : "message",
					"numinlets" : 2,
					"numoutlets" : 1,
					"outlettype" : [ "" ],
					"patching_rect" : [ 45.0, 210.0, 57.0, 22.0 ],
					"style" : "",
					"text" : "xfade $1"
				}

			}
, 			{
				"box" : 				{
					"format" : 6,
					"id" : "obj-3",
					"maxclass" : "flonum",
					"maximum" : 1.0,
					"minimum" : 0.0,
					"numinlets" : 1,
					"numoutlets" : 2,
					"outlettype" : [ "", "bang" ],
					"parameter_enable" : 0,
					"patching_rect" : [ 45.0, 176.0, 50.0, 22.0 ],
					"style" : ""
				}

			}
, 			{
				"box" : 				{
					"id" : "obj-2",
					"maxclass" : "newobj",
					"numinlets" : 2,
					"numoutlets" : 2,
					"outlettype" : [ "jit_gl_texture", "" ],
					"patching_rect" : [ 21.0, 277.5, 759.0, 22.0 ],
					"style" : "",
					"text" : "jit.gl.pix mainout @blend_enable 1 @gen xfade"
				}

			}
, 			{
				"box" : 				{
					"comment" : "Texture 1 In",
					"id" : "obj-1",
					"index" : 1,
					"maxclass" : "inlet",
					"numinlets" : 0,
					"numoutlets" : 1,
					"outlettype" : [ "jit_matrix" ],
					"patching_rect" : [ 21.0, 43.0, 30.0, 30.0 ],
					"style" : ""
				}

			}
 ],
		"lines" : [ 			{
				"patchline" : 				{
					"destination" : [ "obj-2", 0 ],
					"source" : [ "obj-1", 0 ]
				}

			}
, 			{
				"patchline" : 				{
					"destination" : [ "obj-82", 0 ],
					"source" : [ "obj-11", 0 ]
				}

			}
, 			{
				"patchline" : 				{
					"destination" : [ "obj-68", 0 ],
					"midpoints" : [ 554.5, 209.615051, 554.5, 209.615051 ],
					"source" : [ "obj-155", 1 ]
				}

			}
, 			{
				"patchline" : 				{
					"destination" : [ "obj-5", 0 ],
					"order" : 1,
					"source" : [ "obj-2", 0 ]
				}

			}
, 			{
				"patchline" : 				{
					"destination" : [ "obj-9", 0 ],
					"order" : 0,
					"source" : [ "obj-2", 0 ]
				}

			}
, 			{
				"patchline" : 				{
					"destination" : [ "obj-2", 0 ],
					"midpoints" : [ 54.5, 263.0, 30.5, 263.0 ],
					"source" : [ "obj-20", 0 ]
				}

			}
, 			{
				"patchline" : 				{
					"destination" : [ "obj-20", 0 ],
					"midpoints" : [ 54.5, 200.0, 54.5, 200.0 ],
					"source" : [ "obj-3", 0 ]
				}

			}
, 			{
				"patchline" : 				{
					"destination" : [ "obj-2", 1 ],
					"source" : [ "obj-4", 0 ]
				}

			}
, 			{
				"patchline" : 				{
					"destination" : [ "obj-2", 0 ],
					"midpoints" : [ 159.5, 263.0, 30.5, 263.0 ],
					"source" : [ "obj-6", 0 ]
				}

			}
, 			{
				"patchline" : 				{
					"destination" : [ "obj-155", 0 ],
					"midpoints" : [ 503.5, 173.615051, 503.5, 173.615051 ],
					"source" : [ "obj-62", 0 ]
				}

			}
, 			{
				"patchline" : 				{
					"destination" : [ "obj-2", 0 ],
					"midpoints" : [ 554.5, 263.0, 30.5, 263.0 ],
					"source" : [ "obj-68", 0 ]
				}

			}
, 			{
				"patchline" : 				{
					"destination" : [ "obj-77", 0 ],
					"source" : [ "obj-69", 1 ]
				}

			}
, 			{
				"patchline" : 				{
					"destination" : [ "obj-72", 0 ],
					"source" : [ "obj-70", 1 ]
				}

			}
, 			{
				"patchline" : 				{
					"destination" : [ "obj-82", 0 ],
					"midpoints" : [ 159.5, 173.615051, 159.5, 173.615051 ],
					"source" : [ "obj-71", 0 ]
				}

			}
, 			{
				"patchline" : 				{
					"destination" : [ "obj-76", 0 ],
					"source" : [ "obj-72", 0 ]
				}

			}
, 			{
				"patchline" : 				{
					"destination" : [ "obj-71", 0 ],
					"midpoints" : [ 159.5, 143.615051, 159.5, 143.615051 ],
					"source" : [ "obj-76", 0 ]
				}

			}
, 			{
				"patchline" : 				{
					"destination" : [ "obj-81", 0 ],
					"source" : [ "obj-77", 0 ]
				}

			}
, 			{
				"patchline" : 				{
					"destination" : [ "obj-11", 0 ],
					"source" : [ "obj-8", 0 ]
				}

			}
, 			{
				"patchline" : 				{
					"destination" : [ "obj-62", 0 ],
					"midpoints" : [ 503.5, 143.615051, 503.5, 143.615051 ],
					"source" : [ "obj-81", 0 ]
				}

			}
, 			{
				"patchline" : 				{
					"destination" : [ "obj-6", 0 ],
					"midpoints" : [ 159.5, 215.615051, 159.5, 215.615051 ],
					"source" : [ "obj-82", 0 ]
				}

			}
, 			{
				"patchline" : 				{
					"destination" : [ "obj-2", 0 ],
					"midpoints" : [ 659.0, 264.0, 30.5, 264.0 ],
					"order" : 1,
					"source" : [ "obj-84", 0 ]
				}

			}
, 			{
				"patchline" : 				{
					"destination" : [ "obj-9", 0 ],
					"midpoints" : [ 659.0, 264.0, 588.0, 264.0, 588.0, 330.0, 68.0, 330.0 ],
					"order" : 0,
					"source" : [ "obj-84", 0 ]
				}

			}
, 			{
				"patchline" : 				{
					"destination" : [ "obj-84", 0 ],
					"midpoints" : [ 696.5, 216.0, 659.0, 216.0 ],
					"source" : [ "obj-85", 1 ]
				}

			}
 ],
		"styles" : [ 			{
				"name" : "AudioStatus_Menu",
				"default" : 				{
					"bgfillcolor" : 					{
						"type" : "color",
						"color" : [ 0.294118, 0.313726, 0.337255, 1 ],
						"color1" : [ 0.454902, 0.462745, 0.482353, 0.0 ],
						"color2" : [ 0.290196, 0.309804, 0.301961, 1.0 ],
						"angle" : 270.0,
						"proportion" : 0.39,
						"autogradient" : 0
					}

				}
,
				"parentstyle" : "",
				"multi" : 0
			}
, 			{
				"name" : "newobjBrown-1",
				"default" : 				{
					"accentcolor" : [ 0.654902, 0.572549, 0.376471, 1.0 ]
				}
,
				"parentstyle" : "",
				"multi" : 0
			}
, 			{
				"name" : "numberGold-1",
				"default" : 				{
					"accentcolor" : [ 0.764706, 0.592157, 0.101961, 1.0 ]
				}
,
				"parentstyle" : "",
				"multi" : 0
			}
 ]
	}

}
