{
	"patcher" : 	{
		"fileversion" : 1,
		"appversion" : 		{
			"major" : 7,
			"minor" : 3,
			"revision" : 4,
			"architecture" : "x64",
			"modernui" : 1
		}
,
		"rect" : [ 370.0, 436.0, 519.0, 400.0 ],
		"bglocked" : 0,
		"openinpresentation" : 1,
		"default_fontsize" : 12.0,
		"default_fontface" : 0,
		"default_fontname" : "Arial",
		"gridonopen" : 2,
		"gridsize" : [ 15.0, 15.0 ],
		"gridsnaponopen" : 2,
		"objectsnaponopen" : 1,
		"statusbarvisible" : 2,
		"toolbarvisible" : 1,
		"lefttoolbarpinned" : 0,
		"toptoolbarpinned" : 0,
		"righttoolbarpinned" : 0,
		"bottomtoolbarpinned" : 0,
		"toolbars_unpinned_last_save" : 0,
		"tallnewobj" : 0,
		"boxanimatetime" : 200,
		"enablehscroll" : 1,
		"enablevscroll" : 1,
		"devicewidth" : 0.0,
		"description" : "",
		"digest" : "",
		"tags" : "",
		"style" : "",
		"subpatcher_template" : "jit.hausu slab template",
		"boxes" : [ 			{
				"box" : 				{
					"format" : 6,
					"id" : "obj-14",
					"maxclass" : "flonum",
					"numinlets" : 1,
					"numoutlets" : 2,
					"outlettype" : [ "", "bang" ],
					"parameter_enable" : 0,
					"patching_rect" : [ 330.0, 540.0, 50.0, 22.0 ],
					"style" : ""
				}

			}
, 			{
				"box" : 				{
					"id" : "obj-13",
					"maxclass" : "newobj",
					"numinlets" : 1,
					"numoutlets" : 0,
					"patching_rect" : [ 510.0, 366.211426, 93.0, 22.0 ],
					"style" : "",
					"text" : "print @popup 1"
				}

			}
, 			{
				"box" : 				{
					"id" : "obj-12",
					"maxclass" : "newobj",
					"numinlets" : 1,
					"numoutlets" : 1,
					"outlettype" : [ "" ],
					"patching_rect" : [ 510.0, 302.139648, 74.0, 22.0 ],
					"style" : "",
					"text" : "prepend set"
				}

			}
, 			{
				"box" : 				{
					"id" : "obj-5",
					"maxclass" : "newobj",
					"numinlets" : 1,
					"numoutlets" : 1,
					"outlettype" : [ "" ],
					"patching_rect" : [ 362.250183, 301.512451, 74.0, 22.0 ],
					"style" : "",
					"text" : "prepend set"
				}

			}
, 			{
				"box" : 				{
					"id" : "obj-37",
					"maxclass" : "newobj",
					"numinlets" : 1,
					"numoutlets" : 1,
					"outlettype" : [ "" ],
					"patching_rect" : [ 14.250183, 98.211426, 126.0, 22.0 ],
					"style" : "",
					"text" : "prepend jit_gl_texture"
				}

			}
, 			{
				"box" : 				{
					"id" : "obj-87",
					"maxclass" : "newobj",
					"numinlets" : 1,
					"numoutlets" : 1,
					"outlettype" : [ "" ],
					"patching_rect" : [ 147.250183, 98.211426, 97.0, 22.0 ],
					"style" : "",
					"text" : "prepend context"
				}

			}
, 			{
				"box" : 				{
					"id" : "obj-86",
					"maxclass" : "newobj",
					"numinlets" : 3,
					"numoutlets" : 3,
					"outlettype" : [ "", "", "" ],
					"patching_rect" : [ 14.250183, 65.605713, 285.0, 22.0 ],
					"style" : "",
					"text" : "route jit_gl_texture context"
				}

			}
, 			{
				"box" : 				{
					"id" : "obj-35",
					"maxclass" : "newobj",
					"numinlets" : 1,
					"numoutlets" : 4,
					"outlettype" : [ "", "", "", "" ],
					"patching_rect" : [ 74.0, 28.605713, 58.0, 22.0 ],
					"restore" : 					{
						"context" : [ 1 ],
						"onoff" : [ 1 ],
						"onoff-midi" : [ 20 ],
						"strength" : [ 35.836783 ],
						"strength-midi" : [ 4 ]
					}
,
					"style" : "",
					"text" : "autopattr",
					"varname" : "u175001545"
				}

			}
, 			{
				"box" : 				{
					"id" : "obj-28",
					"maxclass" : "newobj",
					"numinlets" : 0,
					"numoutlets" : 1,
					"outlettype" : [ "" ],
					"patching_rect" : [ 225.0, 180.0, 52.0, 22.0 ],
					"style" : "",
					"text" : "r ctx-list"
				}

			}
, 			{
				"box" : 				{
					"id" : "obj-91",
					"maxclass" : "newobj",
					"numinlets" : 0,
					"numoutlets" : 1,
					"outlettype" : [ "" ],
					"patching_rect" : [ 14.250183, 140.605713, 86.0, 22.0 ],
					"style" : "",
					"text" : "r bypass-onoff"
				}

			}
, 			{
				"box" : 				{
					"id" : "obj-3",
					"maxclass" : "newobj",
					"numinlets" : 1,
					"numoutlets" : 1,
					"outlettype" : [ "" ],
					"patching_rect" : [ 225.0, 243.0, 94.0, 22.0 ],
					"style" : "",
					"text" : "prepend drawto"
				}

			}
, 			{
				"box" : 				{
					"fontsize" : 10.0,
					"id" : "obj-16",
					"items" : [ "mainout", ",", "vid-ctx", ",", "3d-ctx" ],
					"maxclass" : "umenu",
					"numinlets" : 1,
					"numoutlets" : 3,
					"outlettype" : [ "int", "", "" ],
					"parameter_enable" : 0,
					"patching_rect" : [ 225.0, 210.0, 100.0, 20.0 ],
					"presentation" : 1,
					"presentation_rect" : [ 240.0, 30.0, 60.0, 20.0 ],
					"style" : "",
					"varname" : "context"
				}

			}
, 			{
				"box" : 				{
					"fontface" : 2,
					"fontsize" : 10.0,
					"id" : "obj-23",
					"maxclass" : "comment",
					"numinlets" : 1,
					"numoutlets" : 0,
					"patching_rect" : [ 281.0, 180.0, 48.0, 18.0 ],
					"presentation" : 1,
					"presentation_rect" : [ 240.0, 15.0, 58.5, 18.0 ],
					"style" : "",
					"text" : "context",
					"textjustification" : 1
				}

			}
, 			{
				"box" : 				{
					"id" : "obj-24",
					"maxclass" : "toggle",
					"numinlets" : 1,
					"numoutlets" : 1,
					"outlettype" : [ "int" ],
					"parameter_enable" : 0,
					"patching_rect" : [ 14.250183, 169.605713, 24.0, 24.0 ],
					"presentation" : 1,
					"presentation_rect" : [ 165.0, 30.0, 20.0, 20.0 ],
					"style" : "",
					"varname" : "onoff"
				}

			}
, 			{
				"box" : 				{
					"fontface" : 3,
					"fontsize" : 16.0,
					"id" : "obj-11",
					"linecount" : 2,
					"maxclass" : "comment",
					"numinlets" : 1,
					"numoutlets" : 0,
					"patching_rect" : [ 130.0, 490.817139, 144.0, 43.0 ],
					"presentation" : 1,
					"presentation_rect" : [ 0.0, 0.0, 210.0, 25.0 ],
					"style" : "",
					"text" : "NORMAL DISPLACEMENT"
				}

			}
, 			{
				"box" : 				{
					"fontface" : 2,
					"fontsize" : 10.0,
					"id" : "obj-22",
					"maxclass" : "comment",
					"numinlets" : 1,
					"numoutlets" : 0,
					"patching_rect" : [ 500.5, 241.749756, 82.0, 18.0 ],
					"presentation" : 1,
					"presentation_rect" : [ 165.0, 15.0, 61.0, 18.0 ],
					"style" : "",
					"text" : "on/off",
					"textjustification" : 1
				}

			}
, 			{
				"box" : 				{
					"id" : "obj-20",
					"maxclass" : "newobj",
					"numinlets" : 2,
					"numoutlets" : 1,
					"outlettype" : [ "" ],
					"patching_rect" : [ 281.0, 413.211426, 44.0, 22.0 ],
					"style" : "",
					"text" : "gate 1"
				}

			}
, 			{
				"box" : 				{
					"comment" : "Displacement Map In",
					"id" : "obj-6",
					"index" : 2,
					"maxclass" : "inlet",
					"numinlets" : 0,
					"numoutlets" : 1,
					"outlettype" : [ "jit_gl_texture" ],
					"patching_rect" : [ 305.992737, 358.211426, 30.0, 30.0 ],
					"style" : ""
				}

			}
, 			{
				"box" : 				{
					"comment" : "texture in",
					"id" : "obj-36",
					"index" : 1,
					"maxclass" : "inlet",
					"numinlets" : 0,
					"numoutlets" : 1,
					"outlettype" : [ "" ],
					"patching_rect" : [ 14.250183, 20.605713, 30.0, 30.0 ],
					"style" : ""
				}

			}
, 			{
				"box" : 				{
					"id" : "obj-7",
					"maxclass" : "newobj",
					"numinlets" : 2,
					"numoutlets" : 2,
					"outlettype" : [ "", "" ],
					"patching_rect" : [ 14.250183, 248.211426, 78.749817, 22.0 ],
					"style" : "",
					"text" : "gate 2 1"
				}

			}
, 			{
				"box" : 				{
					"id" : "obj-1",
					"maxclass" : "newobj",
					"numinlets" : 2,
					"numoutlets" : 1,
					"outlettype" : [ "int" ],
					"patching_rect" : [ 14.250183, 203.211426, 29.5, 22.0 ],
					"style" : "",
					"text" : "+ 1"
				}

			}
, 			{
				"box" : 				{
					"floatoutput" : 1,
					"id" : "obj-21",
					"maxclass" : "slider",
					"mult" : 0.01,
					"numinlets" : 1,
					"numoutlets" : 1,
					"orientation" : 1,
					"outlettype" : [ "" ],
					"parameter_enable" : 0,
					"patching_rect" : [ 104.0, 325.817139, 170.0, 29.144516 ],
					"presentation" : 1,
					"presentation_rect" : [ 0.0, 30.0, 105.0, 20.0 ],
					"size" : 500.0,
					"style" : "",
					"varname" : "strength"
				}

			}
, 			{
				"box" : 				{
					"comment" : "texture out",
					"id" : "obj-8",
					"index" : 1,
					"maxclass" : "outlet",
					"numinlets" : 1,
					"numoutlets" : 0,
					"patching_rect" : [ 14.250183, 564.422852, 30.0, 30.0 ],
					"style" : ""
				}

			}
, 			{
				"box" : 				{
					"allowdrag" : 0,
					"fontsize" : 10.0,
					"id" : "obj-2",
					"items" : [ "s1", ",", "s2", ",", "s3", ",", "s4", ",", "s5", ",", "s6", ",", "s7", ",", "s8", ",", "k1", ",", "k2", ",", "k3", ",", "k4", ",", "k5", ",", "k6", ",", "k7", ",", "k8", ",", "so1", ",", "so2", ",", "so3", ",", "so4", ",", "so5", ",", "so6", ",", "so7", ",", "so8", ",", "mu1", ",", "mu2", ",", "mu3", ",", "mu4", ",", "mu5", ",", "mu6", ",", "mu7", ",", "mu8", ",", "re1", ",", "re2", ",", "re3", ",", "re4", ",", "re5", ",", "re6", ",", "re7", ",", "re8", ",", "back", ",", "forward", ",", "empty" ],
					"maxclass" : "umenu",
					"numinlets" : 1,
					"numoutlets" : 3,
					"outlettype" : [ "int", "", "" ],
					"parameter_enable" : 0,
					"patching_rect" : [ 362.250183, 270.0, 71.0, 22.0 ],
					"presentation" : 1,
					"presentation_rect" : [ 105.0, 30.0, 46.0, 20.0 ],
					"style" : "",
					"varname" : "strength-midi"
				}

			}
, 			{
				"box" : 				{
					"id" : "obj-9",
					"maxclass" : "newobj",
					"numinlets" : 1,
					"numoutlets" : 1,
					"outlettype" : [ "" ],
					"patching_rect" : [ 107.0, 387.817139, 72.0, 22.0 ],
					"style" : "",
					"text" : "loadmess 1"
				}

			}
, 			{
				"box" : 				{
					"allowdrag" : 0,
					"fontsize" : 10.0,
					"id" : "obj-10",
					"items" : [ "s1", ",", "s2", ",", "s3", ",", "s4", ",", "s5", ",", "s6", ",", "s7", ",", "s8", ",", "k1", ",", "k2", ",", "k3", ",", "k4", ",", "k5", ",", "k6", ",", "k7", ",", "k8", ",", "so1", ",", "so2", ",", "so3", ",", "so4", ",", "so5", ",", "so6", ",", "so7", ",", "so8", ",", "mu1", ",", "mu2", ",", "mu3", ",", "mu4", ",", "mu5", ",", "mu6", ",", "mu7", ",", "mu8", ",", "re1", ",", "re2", ",", "re3", ",", "re4", ",", "re5", ",", "re6", ",", "re7", ",", "re8", ",", "back", ",", "forward", ",", "empty" ],
					"maxclass" : "umenu",
					"numinlets" : 1,
					"numoutlets" : 3,
					"outlettype" : [ "int", "", "" ],
					"parameter_enable" : 0,
					"patching_rect" : [ 510.0, 270.0, 71.0, 22.0 ],
					"presentation" : 1,
					"presentation_rect" : [ 185.0, 30.0, 41.0, 20.0 ],
					"style" : "",
					"varname" : "onoff-midi"
				}

			}
, 			{
				"box" : 				{
					"id" : "obj-18",
					"maxclass" : "newobj",
					"numinlets" : 1,
					"numoutlets" : 1,
					"outlettype" : [ "" ],
					"patching_rect" : [ 510.0, 333.139648, 19.0, 22.0 ],
					"style" : "",
					"text" : "r"
				}

			}
, 			{
				"box" : 				{
					"id" : "obj-31",
					"maxclass" : "newobj",
					"numinlets" : 1,
					"numoutlets" : 1,
					"outlettype" : [ "" ],
					"patching_rect" : [ 362.250183, 332.512451, 19.0, 22.0 ],
					"style" : "",
					"text" : "r"
				}

			}
, 			{
				"box" : 				{
					"id" : "obj-32",
					"maxclass" : "newobj",
					"numinlets" : 6,
					"numoutlets" : 1,
					"outlettype" : [ "" ],
					"patching_rect" : [ 362.250183, 451.711426, 112.0, 22.0 ],
					"style" : "",
					"text" : "scale 0. 127. 0. 26."
				}

			}
, 			{
				"box" : 				{
					"id" : "obj-196",
					"maxclass" : "message",
					"numinlets" : 2,
					"numoutlets" : 1,
					"outlettype" : [ "" ],
					"patching_rect" : [ 107.0, 424.96167, 108.0, 22.0 ],
					"style" : "",
					"text" : "param strength $1"
				}

			}
, 			{
				"box" : 				{
					"color" : [ 0.92549, 0.364706, 0.341176, 1.0 ],
					"id" : "obj-200",
					"maxclass" : "newobj",
					"numinlets" : 2,
					"numoutlets" : 2,
					"outlettype" : [ "jit_gl_texture", "" ],
					"patching_rect" : [ 74.0, 463.422852, 267.0, 22.0 ],
					"style" : "",
					"text" : "jit.gl.slab mainout @file normal-displacement.jxs"
				}

			}
 ],
		"lines" : [ 			{
				"patchline" : 				{
					"destination" : [ "obj-20", 0 ],
					"midpoints" : [ 23.750183, 228.0, 210.0, 228.0, 210.0, 312.0, 290.5, 312.0 ],
					"order" : 0,
					"source" : [ "obj-1", 0 ]
				}

			}
, 			{
				"patchline" : 				{
					"destination" : [ "obj-7", 0 ],
					"midpoints" : [ 23.750183, 228.0, 23.750183, 228.0 ],
					"order" : 1,
					"source" : [ "obj-1", 0 ]
				}

			}
, 			{
				"patchline" : 				{
					"destination" : [ "obj-12", 0 ],
					"midpoints" : [ 545.5, 294.0, 519.5, 294.0 ],
					"source" : [ "obj-10", 1 ]
				}

			}
, 			{
				"patchline" : 				{
					"destination" : [ "obj-18", 0 ],
					"midpoints" : [ 519.5, 327.0, 519.5, 327.0 ],
					"source" : [ "obj-12", 0 ]
				}

			}
, 			{
				"patchline" : 				{
					"destination" : [ "obj-3", 0 ],
					"midpoints" : [ 275.0, 234.0, 234.5, 234.0 ],
					"source" : [ "obj-16", 1 ]
				}

			}
, 			{
				"patchline" : 				{
					"destination" : [ "obj-13", 0 ],
					"order" : 0,
					"source" : [ "obj-18", 0 ]
				}

			}
, 			{
				"patchline" : 				{
					"destination" : [ "obj-24", 0 ],
					"midpoints" : [ 519.5, 357.0, 447.0, 357.0, 447.0, 165.0, 111.0, 165.0, 111.0, 174.0, 39.0, 174.0, 39.0, 165.0, 23.750183, 165.0 ],
					"order" : 1,
					"source" : [ "obj-18", 0 ]
				}

			}
, 			{
				"patchline" : 				{
					"destination" : [ "obj-200", 0 ],
					"midpoints" : [ 116.5, 447.0, 83.5, 447.0 ],
					"source" : [ "obj-196", 0 ]
				}

			}
, 			{
				"patchline" : 				{
					"destination" : [ "obj-5", 0 ],
					"midpoints" : [ 397.750183, 294.0, 371.750183, 294.0 ],
					"source" : [ "obj-2", 1 ]
				}

			}
, 			{
				"patchline" : 				{
					"destination" : [ "obj-200", 1 ],
					"midpoints" : [ 290.5, 438.0, 331.5, 438.0 ],
					"source" : [ "obj-20", 0 ]
				}

			}
, 			{
				"patchline" : 				{
					"destination" : [ "obj-8", 0 ],
					"midpoints" : [ 83.5, 549.0, 23.750183, 549.0 ],
					"source" : [ "obj-200", 0 ]
				}

			}
, 			{
				"patchline" : 				{
					"destination" : [ "obj-14", 0 ],
					"order" : 0,
					"source" : [ "obj-21", 0 ]
				}

			}
, 			{
				"patchline" : 				{
					"destination" : [ "obj-196", 0 ],
					"midpoints" : [ 113.5, 372.0, 93.0, 372.0, 93.0, 420.0, 116.5, 420.0 ],
					"order" : 1,
					"source" : [ "obj-21", 0 ]
				}

			}
, 			{
				"patchline" : 				{
					"destination" : [ "obj-1", 0 ],
					"midpoints" : [ 23.750183, 195.0, 23.750183, 195.0 ],
					"source" : [ "obj-24", 0 ]
				}

			}
, 			{
				"patchline" : 				{
					"destination" : [ "obj-16", 0 ],
					"midpoints" : [ 234.5, 204.0, 234.5, 204.0 ],
					"source" : [ "obj-28", 0 ]
				}

			}
, 			{
				"patchline" : 				{
					"destination" : [ "obj-200", 0 ],
					"midpoints" : [ 234.5, 312.0, 83.5, 312.0 ],
					"source" : [ "obj-3", 0 ]
				}

			}
, 			{
				"patchline" : 				{
					"destination" : [ "obj-32", 0 ],
					"midpoints" : [ 371.750183, 357.0, 371.750183, 357.0 ],
					"source" : [ "obj-31", 0 ]
				}

			}
, 			{
				"patchline" : 				{
					"destination" : [ "obj-196", 0 ],
					"midpoints" : [ 371.750183, 474.0, 312.0, 474.0, 312.0, 447.0, 225.0, 447.0, 225.0, 411.0, 116.5, 411.0 ],
					"order" : 0,
					"source" : [ "obj-32", 0 ]
				}

			}
, 			{
				"patchline" : 				{
					"destination" : [ "obj-21", 0 ],
					"midpoints" : [ 371.750183, 474.0, 345.0, 474.0, 345.0, 312.0, 113.5, 312.0 ],
					"order" : 1,
					"source" : [ "obj-32", 0 ]
				}

			}
, 			{
				"patchline" : 				{
					"destination" : [ "obj-86", 0 ],
					"midpoints" : [ 23.750183, 51.0, 23.750183, 51.0 ],
					"source" : [ "obj-36", 0 ]
				}

			}
, 			{
				"patchline" : 				{
					"destination" : [ "obj-7", 1 ],
					"midpoints" : [ 23.750183, 123.0, 0.0, 123.0, 0.0, 234.0, 83.5, 234.0 ],
					"source" : [ "obj-37", 0 ]
				}

			}
, 			{
				"patchline" : 				{
					"destination" : [ "obj-31", 0 ],
					"midpoints" : [ 371.750183, 324.0, 371.750183, 324.0 ],
					"source" : [ "obj-5", 0 ]
				}

			}
, 			{
				"patchline" : 				{
					"destination" : [ "obj-20", 1 ],
					"midpoints" : [ 315.492737, 390.0, 315.5, 390.0 ],
					"source" : [ "obj-6", 0 ]
				}

			}
, 			{
				"patchline" : 				{
					"destination" : [ "obj-200", 0 ],
					"midpoints" : [ 83.5, 273.0, 83.5, 273.0 ],
					"source" : [ "obj-7", 1 ]
				}

			}
, 			{
				"patchline" : 				{
					"destination" : [ "obj-8", 0 ],
					"midpoints" : [ 23.750183, 273.0, 23.750183, 273.0 ],
					"source" : [ "obj-7", 0 ]
				}

			}
, 			{
				"patchline" : 				{
					"destination" : [ "obj-16", 0 ],
					"midpoints" : [ 156.750183, 90.0, 144.0, 90.0, 144.0, 204.0, 234.5, 204.0 ],
					"order" : 0,
					"source" : [ "obj-86", 1 ]
				}

			}
, 			{
				"patchline" : 				{
					"destination" : [ "obj-37", 0 ],
					"midpoints" : [ 23.750183, 90.0, 23.750183, 90.0 ],
					"source" : [ "obj-86", 0 ]
				}

			}
, 			{
				"patchline" : 				{
					"destination" : [ "obj-87", 0 ],
					"midpoints" : [ 156.750183, 90.0, 156.750183, 90.0 ],
					"order" : 1,
					"source" : [ "obj-86", 1 ]
				}

			}
, 			{
				"patchline" : 				{
					"destination" : [ "obj-8", 0 ],
					"midpoints" : [ 156.750183, 312.0, 23.750183, 312.0 ],
					"source" : [ "obj-87", 0 ]
				}

			}
, 			{
				"patchline" : 				{
					"destination" : [ "obj-196", 0 ],
					"midpoints" : [ 116.5, 411.0, 116.5, 411.0 ],
					"source" : [ "obj-9", 0 ]
				}

			}
, 			{
				"patchline" : 				{
					"destination" : [ "obj-24", 0 ],
					"midpoints" : [ 23.750183, 165.0, 23.750183, 165.0 ],
					"source" : [ "obj-91", 0 ]
				}

			}
 ],
		"styles" : [ 			{
				"name" : "AudioStatus_Menu",
				"default" : 				{
					"bgfillcolor" : 					{
						"type" : "color",
						"color" : [ 0.294118, 0.313726, 0.337255, 1 ],
						"color1" : [ 0.454902, 0.462745, 0.482353, 0.0 ],
						"color2" : [ 0.290196, 0.309804, 0.301961, 1.0 ],
						"angle" : 270.0,
						"proportion" : 0.39,
						"autogradient" : 0
					}

				}
,
				"parentstyle" : "",
				"multi" : 0
			}
, 			{
				"name" : "newobjBrown-1",
				"default" : 				{
					"accentcolor" : [ 0.654902, 0.572549, 0.376471, 1.0 ]
				}
,
				"parentstyle" : "",
				"multi" : 0
			}
, 			{
				"name" : "numberGold-1",
				"default" : 				{
					"accentcolor" : [ 0.764706, 0.592157, 0.101961, 1.0 ]
				}
,
				"parentstyle" : "",
				"multi" : 0
			}
 ],
		"bgfillcolor_type" : "gradient",
		"bgfillcolor_color1" : [ 0.376471, 0.384314, 0.4, 1.0 ],
		"bgfillcolor_color2" : [ 0.290196, 0.309804, 0.301961, 1.0 ],
		"bgfillcolor_color" : [ 0.290196, 0.309804, 0.301961, 1.0 ],
		"bgfillcolor_angle" : 270.0,
		"bgfillcolor_proportion" : 0.39
	}

}
