{
	"patcher" : 	{
		"fileversion" : 1,
		"appversion" : 		{
			"major" : 7,
			"minor" : 3,
			"revision" : 4,
			"architecture" : "x64",
			"modernui" : 1
		}
,
		"rect" : [ 177.0, 219.0, 1277.0, 611.0 ],
		"bglocked" : 0,
		"openinpresentation" : 1,
		"default_fontsize" : 12.0,
		"default_fontface" : 0,
		"default_fontname" : "Arial",
		"gridonopen" : 2,
		"gridsize" : [ 15.0, 15.0 ],
		"gridsnaponopen" : 2,
		"objectsnaponopen" : 1,
		"statusbarvisible" : 2,
		"toolbarvisible" : 1,
		"lefttoolbarpinned" : 0,
		"toptoolbarpinned" : 0,
		"righttoolbarpinned" : 0,
		"bottomtoolbarpinned" : 0,
		"toolbars_unpinned_last_save" : 0,
		"tallnewobj" : 0,
		"boxanimatetime" : 200,
		"enablehscroll" : 1,
		"enablevscroll" : 1,
		"devicewidth" : 0.0,
		"description" : "",
		"digest" : "",
		"tags" : "",
		"style" : "",
		"subpatcher_template" : "jit.hausu slab template",
		"boxes" : [ 			{
				"box" : 				{
					"id" : "obj-66",
					"maxclass" : "newobj",
					"numinlets" : 6,
					"numoutlets" : 1,
					"outlettype" : [ "" ],
					"patching_rect" : [ 1290.0, 337.478821, 105.0, 22.0 ],
					"style" : "",
					"text" : "scale 0. 127. 0. 2."
				}

			}
, 			{
				"box" : 				{
					"id" : "obj-26",
					"maxclass" : "newobj",
					"numinlets" : 1,
					"numoutlets" : 1,
					"outlettype" : [ "" ],
					"patching_rect" : [ 1290.0, 255.0, 74.0, 22.0 ],
					"style" : "",
					"text" : "prepend set"
				}

			}
, 			{
				"box" : 				{
					"allowdrag" : 0,
					"id" : "obj-45",
					"items" : [ "s1", ",", "s2", ",", "s3", ",", "s4", ",", "s5", ",", "s6", ",", "s7", ",", "s8", ",", "k1", ",", "k2", ",", "k3", ",", "k4", ",", "k5", ",", "k6", ",", "k7", ",", "k8", ",", "so1", ",", "so2", ",", "so3", ",", "so4", ",", "so5", ",", "so6", ",", "so7", ",", "so8", ",", "mu1", ",", "mu2", ",", "mu3", ",", "mu4", ",", "mu5", ",", "mu6", ",", "mu7", ",", "mu8", ",", "re1", ",", "re2", ",", "re3", ",", "re4", ",", "re5", ",", "re6", ",", "re7", ",", "re8", ",", "back", ",", "forward", ",", "empty" ],
					"maxclass" : "umenu",
					"numinlets" : 1,
					"numoutlets" : 3,
					"outlettype" : [ "int", "", "" ],
					"parameter_enable" : 0,
					"patching_rect" : [ 1290.0, 225.0, 71.0, 22.0 ],
					"presentation" : 1,
					"presentation_rect" : [ 113.166672, 30.0, 45.0, 22.0 ],
					"style" : "chiba",
					"varname" : "zoom-midi"
				}

			}
, 			{
				"box" : 				{
					"id" : "obj-46",
					"maxclass" : "newobj",
					"numinlets" : 1,
					"numoutlets" : 1,
					"outlettype" : [ "" ],
					"patching_rect" : [ 1290.0, 306.644348, 19.0, 22.0 ],
					"style" : "",
					"text" : "r"
				}

			}
, 			{
				"box" : 				{
					"fontface" : 2,
					"id" : "obj-55",
					"maxclass" : "comment",
					"numinlets" : 1,
					"numoutlets" : 0,
					"patching_rect" : [ 1300.5, 195.0, 50.0, 20.0 ],
					"style" : "",
					"text" : "zoom",
					"textjustification" : 1
				}

			}
, 			{
				"box" : 				{
					"id" : "obj-18",
					"maxclass" : "newobj",
					"numinlets" : 1,
					"numoutlets" : 1,
					"outlettype" : [ "" ],
					"patching_rect" : [ 1208.242554, 255.0, 74.0, 22.0 ],
					"style" : "",
					"text" : "prepend set"
				}

			}
, 			{
				"box" : 				{
					"id" : "obj-12",
					"maxclass" : "newobj",
					"numinlets" : 1,
					"numoutlets" : 1,
					"outlettype" : [ "" ],
					"patching_rect" : [ 1103.242554, 255.0, 74.0, 22.0 ],
					"style" : "",
					"text" : "prepend set"
				}

			}
, 			{
				"box" : 				{
					"fontface" : 2,
					"id" : "obj-89",
					"maxclass" : "comment",
					"numinlets" : 1,
					"numoutlets" : 0,
					"patching_rect" : [ 676.863831, 125.250061, 50.0, 20.0 ],
					"presentation" : 1,
					"presentation_rect" : [ 172.5, 159.0, 69.0, 20.0 ],
					"style" : "",
					"text" : "to beat",
					"textjustification" : 1
				}

			}
, 			{
				"box" : 				{
					"id" : "obj-85",
					"maxclass" : "toggle",
					"numinlets" : 1,
					"numoutlets" : 1,
					"outlettype" : [ "int" ],
					"parameter_enable" : 0,
					"patching_rect" : [ 689.863831, 156.394592, 24.0, 24.0 ],
					"presentation" : 1,
					"presentation_rect" : [ 195.0, 181.0, 24.0, 24.0 ],
					"style" : ""
				}

			}
, 			{
				"box" : 				{
					"id" : "obj-13",
					"maxclass" : "newobj",
					"numinlets" : 2,
					"numoutlets" : 1,
					"outlettype" : [ "" ],
					"patching_rect" : [ 689.863831, 225.0, 34.0, 22.0 ],
					"style" : "",
					"text" : "gate"
				}

			}
, 			{
				"box" : 				{
					"id" : "obj-84",
					"maxclass" : "newobj",
					"numinlets" : 1,
					"numoutlets" : 1,
					"outlettype" : [ "" ],
					"patching_rect" : [ 10.235291, 99.0, 126.0, 22.0 ],
					"style" : "",
					"text" : "prepend jit_gl_texture"
				}

			}
, 			{
				"box" : 				{
					"id" : "obj-87",
					"maxclass" : "newobj",
					"numinlets" : 1,
					"numoutlets" : 1,
					"outlettype" : [ "" ],
					"patching_rect" : [ 142.238922, 99.0, 97.0, 22.0 ],
					"style" : "",
					"text" : "prepend context"
				}

			}
, 			{
				"box" : 				{
					"id" : "obj-86",
					"maxclass" : "newobj",
					"numinlets" : 3,
					"numoutlets" : 3,
					"outlettype" : [ "", "", "" ],
					"patching_rect" : [ 10.235291, 69.0, 283.007263, 22.0 ],
					"style" : "",
					"text" : "route jit_gl_texture context"
				}

			}
, 			{
				"box" : 				{
					"id" : "obj-65",
					"maxclass" : "newobj",
					"numinlets" : 1,
					"numoutlets" : 4,
					"outlettype" : [ "", "", "", "" ],
					"patching_rect" : [ 68.242554, 32.0, 58.0, 22.0 ],
					"restore" : 					{
						"color-a" : [ 1.0 ],
						"color-b" : [ 1.0 ],
						"color-g" : [ 0.0 ],
						"color-r" : [ 0.0 ],
						"context" : [ 1 ],
						"dac-onoff" : [ 0 ],
						"dirx" : [ 0.0 ],
						"diry" : [ 0.63 ],
						"onoff" : [ 0 ],
						"onoff-midi" : [ 42 ],
						"scale" : [ 0.031 ],
						"shake-midi" : [ 16 ],
						"zoom" : [ 0.362205 ],
						"zoom-midi" : [ 7 ]
					}
,
					"style" : "",
					"text" : "autopattr",
					"varname" : "u598000993"
				}

			}
, 			{
				"box" : 				{
					"id" : "obj-14",
					"maxclass" : "newobj",
					"numinlets" : 0,
					"numoutlets" : 1,
					"outlettype" : [ "" ],
					"patching_rect" : [ 142.238922, 165.0, 52.0, 22.0 ],
					"style" : "",
					"text" : "r ctx-list"
				}

			}
, 			{
				"box" : 				{
					"id" : "obj-91",
					"maxclass" : "newobj",
					"numinlets" : 0,
					"numoutlets" : 1,
					"outlettype" : [ "" ],
					"patching_rect" : [ 10.235291, 129.0, 86.0, 22.0 ],
					"style" : "",
					"text" : "r bypass-onoff"
				}

			}
, 			{
				"box" : 				{
					"id" : "obj-81",
					"maxclass" : "newobj",
					"numinlets" : 1,
					"numoutlets" : 1,
					"outlettype" : [ "" ],
					"patching_rect" : [ 142.238922, 244.0, 94.0, 22.0 ],
					"style" : "",
					"text" : "prepend drawto"
				}

			}
, 			{
				"box" : 				{
					"id" : "obj-82",
					"items" : [ "mainout", ",", "vid-ctx", ",", "3d-ctx" ],
					"maxclass" : "umenu",
					"numinlets" : 1,
					"numoutlets" : 3,
					"outlettype" : [ "int", "", "" ],
					"parameter_enable" : 0,
					"patching_rect" : [ 142.238922, 211.0, 100.0, 22.0 ],
					"presentation" : 1,
					"presentation_rect" : [ 167.0, 75.0, 69.0, 22.0 ],
					"style" : "",
					"varname" : "context"
				}

			}
, 			{
				"box" : 				{
					"fontface" : 2,
					"id" : "obj-83",
					"maxclass" : "comment",
					"numinlets" : 1,
					"numoutlets" : 0,
					"patching_rect" : [ 142.238922, 189.0, 93.0, 20.0 ],
					"presentation" : 1,
					"presentation_rect" : [ 167.0, 54.0, 69.0, 20.0 ],
					"style" : "",
					"text" : "context",
					"textjustification" : 1
				}

			}
, 			{
				"box" : 				{
					"id" : "obj-42",
					"maxclass" : "newobj",
					"numinlets" : 1,
					"numoutlets" : 2,
					"outlettype" : [ "bang", "bang" ],
					"patching_rect" : [ 1208.242554, 337.478821, 54.0, 22.0 ],
					"style" : "",
					"text" : "togedge"
				}

			}
, 			{
				"box" : 				{
					"allowdrag" : 0,
					"id" : "obj-62",
					"items" : [ "s1", ",", "s2", ",", "s3", ",", "s4", ",", "s5", ",", "s6", ",", "s7", ",", "s8", ",", "k1", ",", "k2", ",", "k3", ",", "k4", ",", "k5", ",", "k6", ",", "k7", ",", "k8", ",", "so1", ",", "so2", ",", "so3", ",", "so4", ",", "so5", ",", "so6", ",", "so7", ",", "so8", ",", "mu1", ",", "mu2", ",", "mu3", ",", "mu4", ",", "mu5", ",", "mu6", ",", "mu7", ",", "mu8", ",", "re1", ",", "re2", ",", "re3", ",", "re4", ",", "re5", ",", "re6", ",", "re7", ",", "re8", ",", "back", ",", "forward", ",", "empty" ],
					"maxclass" : "umenu",
					"numinlets" : 1,
					"numoutlets" : 3,
					"outlettype" : [ "int", "", "" ],
					"parameter_enable" : 0,
					"patching_rect" : [ 1208.242554, 225.0, 71.0, 22.0 ],
					"presentation" : 1,
					"presentation_rect" : [ 191.0, 30.0, 45.0, 22.0 ],
					"style" : "chiba",
					"varname" : "onoff-midi"
				}

			}
, 			{
				"box" : 				{
					"id" : "obj-75",
					"maxclass" : "newobj",
					"numinlets" : 1,
					"numoutlets" : 1,
					"outlettype" : [ "" ],
					"patching_rect" : [ 1208.242554, 306.644348, 19.0, 22.0 ],
					"style" : "",
					"text" : "r"
				}

			}
, 			{
				"box" : 				{
					"fontface" : 2,
					"id" : "obj-37",
					"maxclass" : "comment",
					"numinlets" : 1,
					"numoutlets" : 0,
					"patching_rect" : [ 1220.242554, 195.0, 50.0, 20.0 ],
					"presentation" : 1,
					"presentation_rect" : [ 167.0, 8.0, 69.0, 20.0 ],
					"style" : "",
					"text" : "on/off",
					"textjustification" : 1
				}

			}
, 			{
				"box" : 				{
					"id" : "obj-16",
					"maxclass" : "toggle",
					"numinlets" : 1,
					"numoutlets" : 1,
					"outlettype" : [ "int" ],
					"parameter_enable" : 0,
					"patching_rect" : [ 10.235291, 160.0, 24.0, 24.0 ],
					"presentation" : 1,
					"presentation_rect" : [ 167.0, 30.0, 22.0, 22.0 ],
					"style" : "",
					"varname" : "onoff"
				}

			}
, 			{
				"box" : 				{
					"fontface" : 3,
					"fontsize" : 16.0,
					"id" : "obj-4",
					"maxclass" : "comment",
					"numinlets" : 1,
					"numoutlets" : 0,
					"patching_rect" : [ 128.242554, 564.0, 96.0, 25.0 ],
					"presentation" : 1,
					"presentation_rect" : [ 0.0, 0.0, 96.0, 25.0 ],
					"style" : "",
					"text" : "SHAKE"
				}

			}
, 			{
				"box" : 				{
					"id" : "obj-88",
					"maxclass" : "newobj",
					"numinlets" : 1,
					"numoutlets" : 1,
					"outlettype" : [ "" ],
					"patching_rect" : [ 869.227661, 283.0, 75.0, 22.0 ],
					"style" : "",
					"text" : "loadmess 1."
				}

			}
, 			{
				"box" : 				{
					"format" : 6,
					"id" : "obj-33",
					"maxclass" : "flonum",
					"maximum" : 1.0,
					"minimum" : 0.0,
					"numinlets" : 1,
					"numoutlets" : 2,
					"outlettype" : [ "", "bang" ],
					"parameter_enable" : 0,
					"patching_rect" : [ 343.909241, 313.394287, 50.0, 22.0 ],
					"presentation" : 1,
					"presentation_rect" : [ 135.0, 136.0, 43.0, 22.0 ],
					"style" : "velvet",
					"varname" : "color-a"
				}

			}
, 			{
				"box" : 				{
					"fontface" : 2,
					"id" : "obj-32",
					"maxclass" : "comment",
					"numinlets" : 1,
					"numoutlets" : 0,
					"patching_rect" : [ 170.909225, 291.394287, 223.000015, 20.0 ],
					"presentation" : 1,
					"presentation_rect" : [ 0.0, 114.0, 181.333344, 20.0 ],
					"style" : "",
					"text" : "color channel shift",
					"textjustification" : 1
				}

			}
, 			{
				"box" : 				{
					"format" : 6,
					"id" : "obj-31",
					"maxclass" : "flonum",
					"maximum" : 1.0,
					"minimum" : 0.0,
					"numinlets" : 1,
					"numoutlets" : 2,
					"outlettype" : [ "", "bang" ],
					"parameter_enable" : 0,
					"patching_rect" : [ 286.242554, 313.394287, 50.0, 22.0 ],
					"presentation" : 1,
					"presentation_rect" : [ 87.666672, 136.0, 47.0, 22.0 ],
					"style" : "velvet",
					"varname" : "color-b"
				}

			}
, 			{
				"box" : 				{
					"format" : 6,
					"id" : "obj-29",
					"maxclass" : "flonum",
					"maximum" : 1.0,
					"minimum" : 0.0,
					"numinlets" : 1,
					"numoutlets" : 2,
					"outlettype" : [ "", "bang" ],
					"parameter_enable" : 0,
					"patching_rect" : [ 228.575882, 313.394287, 50.0, 22.0 ],
					"presentation" : 1,
					"presentation_rect" : [ 44.666668, 136.0, 45.0, 22.0 ],
					"style" : "velvet",
					"varname" : "color-g"
				}

			}
, 			{
				"box" : 				{
					"format" : 6,
					"id" : "obj-30",
					"maxclass" : "flonum",
					"maximum" : 1.0,
					"minimum" : 0.0,
					"numinlets" : 1,
					"numoutlets" : 2,
					"outlettype" : [ "", "bang" ],
					"parameter_enable" : 0,
					"patching_rect" : [ 170.909225, 313.394287, 50.0, 22.0 ],
					"presentation" : 1,
					"presentation_rect" : [ 0.0, 136.0, 45.0, 22.0 ],
					"style" : "velvet",
					"varname" : "color-r"
				}

			}
, 			{
				"box" : 				{
					"id" : "obj-25",
					"maxclass" : "newobj",
					"numinlets" : 5,
					"numoutlets" : 1,
					"outlettype" : [ "" ],
					"patching_rect" : [ 113.242554, 339.0, 249.666687, 22.0 ],
					"style" : "",
					"text" : "pak colorshift 0. 0. 0. 0."
				}

			}
, 			{
				"box" : 				{
					"bgcolor" : [ 0.086275, 0.309804, 0.52549, 1.0 ],
					"format" : 6,
					"id" : "obj-21",
					"maxclass" : "flonum",
					"numinlets" : 1,
					"numoutlets" : 2,
					"outlettype" : [ "", "bang" ],
					"parameter_enable" : 0,
					"patching_rect" : [ 446.863831, 391.0, 50.0, 22.0 ],
					"style" : ""
				}

			}
, 			{
				"box" : 				{
					"id" : "obj-10",
					"maxclass" : "toggle",
					"numinlets" : 1,
					"numoutlets" : 1,
					"outlettype" : [ "int" ],
					"parameter_enable" : 0,
					"patching_rect" : [ 325.909241, 69.355469, 24.0, 24.0 ],
					"style" : "",
					"varname" : "dac-onoff"
				}

			}
, 			{
				"box" : 				{
					"id" : "obj-3",
					"maxclass" : "newobj",
					"numinlets" : 2,
					"numoutlets" : 0,
					"patching_rect" : [ 325.909241, 99.0, 37.0, 22.0 ],
					"style" : "",
					"text" : "dac~"
				}

			}
, 			{
				"box" : 				{
					"id" : "obj-2",
					"maxclass" : "newobj",
					"numinlets" : 1,
					"numoutlets" : 1,
					"outlettype" : [ "bang" ],
					"patching_rect" : [ 325.909241, 44.355469, 60.0, 22.0 ],
					"style" : "",
					"text" : "loadbang"
				}

			}
, 			{
				"box" : 				{
					"id" : "obj-19",
					"maxclass" : "newobj",
					"numinlets" : 1,
					"numoutlets" : 1,
					"outlettype" : [ "bang" ],
					"patching_rect" : [ 689.863831, 270.0, 24.0, 22.0 ],
					"style" : "",
					"text" : "t b"
				}

			}
, 			{
				"box" : 				{
					"id" : "obj-5",
					"maxclass" : "newobj",
					"numinlets" : 2,
					"numoutlets" : 1,
					"outlettype" : [ "bang" ],
					"patching_rect" : [ 689.863831, 320.499817, 50.0, 22.0 ],
					"style" : "",
					"text" : "del 500"
				}

			}
, 			{
				"box" : 				{
					"fontface" : 2,
					"id" : "obj-78",
					"maxclass" : "comment",
					"numinlets" : 1,
					"numoutlets" : 0,
					"patching_rect" : [ 229.242554, 398.0, 50.0, 20.0 ],
					"presentation" : 1,
					"presentation_rect" : [ 68.166672, 8.0, 45.0, 20.0 ],
					"style" : "",
					"text" : "zoom",
					"textjustification" : 1
				}

			}
, 			{
				"box" : 				{
					"fontface" : 2,
					"id" : "obj-76",
					"maxclass" : "comment",
					"numinlets" : 1,
					"numoutlets" : 0,
					"patching_rect" : [ 113.242554, 398.0, 101.757446, 20.0 ],
					"presentation" : 1,
					"presentation_rect" : [ -0.333332, 159.0, 92.0, 20.0 ],
					"style" : "",
					"text" : "direction",
					"textjustification" : 1
				}

			}
, 			{
				"box" : 				{
					"id" : "obj-71",
					"maxclass" : "newobj",
					"numinlets" : 1,
					"numoutlets" : 1,
					"outlettype" : [ "bang" ],
					"patching_rect" : [ 885.227661, 312.394287, 60.0, 22.0 ],
					"style" : "",
					"text" : "loadbang"
				}

			}
, 			{
				"box" : 				{
					"id" : "obj-70",
					"maxclass" : "comment",
					"numinlets" : 1,
					"numoutlets" : 0,
					"patching_rect" : [ 940.470032, 367.0, 72.257629, 20.0 ],
					"presentation" : 1,
					"presentation_rect" : [ 53.166672, 53.0, 75.0, 20.0 ],
					"style" : "",
					"text" : "shake scale",
					"textjustification" : 1
				}

			}
, 			{
				"box" : 				{
					"id" : "obj-68",
					"maxclass" : "newobj",
					"numinlets" : 2,
					"numoutlets" : 2,
					"outlettype" : [ "", "" ],
					"patching_rect" : [ 1036.242554, 375.250061, 56.757446, 22.0 ],
					"style" : "",
					"text" : "route 0."
				}

			}
, 			{
				"box" : 				{
					"id" : "obj-64",
					"maxclass" : "message",
					"numinlets" : 2,
					"numoutlets" : 1,
					"outlettype" : [ "" ],
					"patching_rect" : [ 885.227661, 340.0, 41.0, 22.0 ],
					"style" : "",
					"text" : "0.031"
				}

			}
, 			{
				"box" : 				{
					"id" : "obj-59",
					"maxclass" : "message",
					"numinlets" : 2,
					"numoutlets" : 1,
					"outlettype" : [ "" ],
					"patching_rect" : [ 790.863831, 365.499817, 31.0, 22.0 ],
					"style" : "",
					"text" : "500"
				}

			}
, 			{
				"box" : 				{
					"id" : "obj-58",
					"maxclass" : "message",
					"numinlets" : 2,
					"numoutlets" : 1,
					"outlettype" : [ "" ],
					"patching_rect" : [ 727.363831, 365.499817, 29.5, 22.0 ],
					"style" : "",
					"text" : "0.8"
				}

			}
, 			{
				"box" : 				{
					"id" : "obj-57",
					"maxclass" : "message",
					"numinlets" : 2,
					"numoutlets" : 1,
					"outlettype" : [ "" ],
					"patching_rect" : [ 663.863831, 365.499817, 34.0, 22.0 ],
					"style" : "",
					"text" : "100."
				}

			}
, 			{
				"box" : 				{
					"id" : "obj-56",
					"maxclass" : "message",
					"numinlets" : 2,
					"numoutlets" : 1,
					"outlettype" : [ "" ],
					"patching_rect" : [ 600.363831, 365.499817, 29.5, 22.0 ],
					"style" : "",
					"text" : "10."
				}

			}
, 			{
				"box" : 				{
					"id" : "obj-54",
					"maxclass" : "newobj",
					"numinlets" : 1,
					"numoutlets" : 1,
					"outlettype" : [ "bang" ],
					"patching_rect" : [ 790.863831, 320.499817, 60.0, 22.0 ],
					"style" : "",
					"text" : "loadbang"
				}

			}
, 			{
				"box" : 				{
					"format" : 6,
					"id" : "obj-53",
					"maxclass" : "flonum",
					"numinlets" : 1,
					"numoutlets" : 2,
					"outlettype" : [ "", "bang" ],
					"parameter_enable" : 0,
					"patching_rect" : [ 790.863831, 391.0, 50.0, 22.0 ],
					"style" : ""
				}

			}
, 			{
				"box" : 				{
					"format" : 6,
					"id" : "obj-51",
					"maxclass" : "flonum",
					"numinlets" : 1,
					"numoutlets" : 2,
					"outlettype" : [ "", "bang" ],
					"parameter_enable" : 0,
					"patching_rect" : [ 727.363831, 391.0, 50.0, 22.0 ],
					"style" : ""
				}

			}
, 			{
				"box" : 				{
					"format" : 6,
					"id" : "obj-50",
					"maxclass" : "flonum",
					"numinlets" : 1,
					"numoutlets" : 2,
					"outlettype" : [ "", "bang" ],
					"parameter_enable" : 0,
					"patching_rect" : [ 663.863831, 391.0, 50.0, 22.0 ],
					"style" : ""
				}

			}
, 			{
				"box" : 				{
					"format" : 6,
					"id" : "obj-44",
					"maxclass" : "flonum",
					"numinlets" : 1,
					"numoutlets" : 2,
					"outlettype" : [ "", "bang" ],
					"parameter_enable" : 0,
					"patching_rect" : [ 600.363831, 391.0, 50.0, 22.0 ],
					"style" : ""
				}

			}
, 			{
				"box" : 				{
					"id" : "obj-41",
					"maxclass" : "newobj",
					"numinlets" : 2,
					"numoutlets" : 1,
					"outlettype" : [ "float" ],
					"patching_rect" : [ 869.227661, 420.0, 35.0, 22.0 ],
					"style" : "",
					"text" : "* 0.2"
				}

			}
, 			{
				"box" : 				{
					"id" : "obj-40",
					"maxclass" : "newobj",
					"numinlets" : 2,
					"numoutlets" : 1,
					"outlettype" : [ "float" ],
					"patching_rect" : [ 1036.242554, 349.250061, 41.0, 22.0 ],
					"style" : "",
					"text" : "/ 127."
				}

			}
, 			{
				"box" : 				{
					"format" : 6,
					"id" : "obj-27",
					"maxclass" : "flonum",
					"numinlets" : 1,
					"numoutlets" : 2,
					"outlettype" : [ "", "bang" ],
					"parameter_enable" : 0,
					"patching_rect" : [ 229.242554, 420.0, 50.0, 22.0 ],
					"presentation" : 1,
					"presentation_rect" : [ 68.166672, 30.0, 45.0, 22.0 ],
					"style" : "velvet",
					"varname" : "zoom"
				}

			}
, 			{
				"box" : 				{
					"id" : "obj-20",
					"maxclass" : "newobj",
					"numinlets" : 1,
					"numoutlets" : 1,
					"outlettype" : [ "" ],
					"patching_rect" : [ 229.242554, 472.0, 87.0, 22.0 ],
					"style" : "",
					"text" : "prepend zoom"
				}

			}
, 			{
				"box" : 				{
					"format" : 6,
					"id" : "obj-15",
					"maxclass" : "flonum",
					"maximum" : 1.0,
					"minimum" : 0.0,
					"numinlets" : 1,
					"numoutlets" : 2,
					"outlettype" : [ "", "bang" ],
					"parameter_enable" : 0,
					"patching_rect" : [ 165.0, 420.0, 50.0, 22.0 ],
					"presentation" : 1,
					"presentation_rect" : [ 44.666668, 181.0, 45.0, 22.0 ],
					"style" : "velvet",
					"varname" : "diry"
				}

			}
, 			{
				"box" : 				{
					"format" : 6,
					"id" : "obj-11",
					"maxclass" : "flonum",
					"maximum" : 1.0,
					"minimum" : 0.0,
					"numinlets" : 1,
					"numoutlets" : 2,
					"outlettype" : [ "", "bang" ],
					"parameter_enable" : 0,
					"patching_rect" : [ 113.242554, 420.0, 50.0, 22.0 ],
					"presentation" : 1,
					"presentation_rect" : [ -0.333332, 181.0, 45.0, 22.0 ],
					"style" : "velvet",
					"varname" : "dirx"
				}

			}
, 			{
				"box" : 				{
					"id" : "obj-9",
					"maxclass" : "newobj",
					"numinlets" : 2,
					"numoutlets" : 1,
					"outlettype" : [ "" ],
					"patching_rect" : [ 113.242554, 444.0, 70.757446, 22.0 ],
					"style" : "",
					"text" : "pak 1. 0."
				}

			}
, 			{
				"box" : 				{
					"id" : "obj-6",
					"maxclass" : "newobj",
					"numinlets" : 1,
					"numoutlets" : 1,
					"outlettype" : [ "" ],
					"patching_rect" : [ 113.242554, 472.0, 103.0, 22.0 ],
					"style" : "",
					"text" : "prepend direction"
				}

			}
, 			{
				"box" : 				{
					"id" : "obj-47",
					"maxclass" : "newobj",
					"numinlets" : 1,
					"numoutlets" : 2,
					"outlettype" : [ "bang", "bang" ],
					"patching_rect" : [ 1103.242554, 375.250061, 57.0, 22.0 ],
					"style" : "",
					"text" : "togedge"
				}

			}
, 			{
				"box" : 				{
					"id" : "obj-48",
					"items" : [ "p1", ",", "p2", ",", "p3", ",", "p4", ",", "p5", ",", "p6", ",", "p7", ",", "p8", ",", "p9", ",", "p10", ",", "p11", ",", "p12", ",", "p13", ",", "p14", ",", "p15", ",", "p16", ",", "empty" ],
					"maxclass" : "umenu",
					"numinlets" : 1,
					"numoutlets" : 3,
					"outlettype" : [ "int", "", "" ],
					"parameter_enable" : 0,
					"patching_rect" : [ 1103.242554, 225.0, 57.0, 22.0 ],
					"presentation" : 1,
					"presentation_rect" : [ 0.0, 75.0, 45.0, 22.0 ],
					"style" : "chiba",
					"varname" : "shake-midi"
				}

			}
, 			{
				"box" : 				{
					"id" : "obj-17",
					"maxclass" : "newobj",
					"numinlets" : 1,
					"numoutlets" : 1,
					"outlettype" : [ "" ],
					"patching_rect" : [ 1103.242554, 306.644348, 19.0, 22.0 ],
					"style" : "",
					"text" : "r"
				}

			}
, 			{
				"box" : 				{
					"handoff" : "",
					"id" : "obj-204",
					"maxclass" : "ubutton",
					"numinlets" : 1,
					"numoutlets" : 4,
					"outlettype" : [ "bang", "bang", "", "int" ],
					"patching_rect" : [ 536.863831, 183.644348, 133.0, 133.500183 ],
					"presentation" : 1,
					"presentation_rect" : [ 0.0, 30.0, 45.0, 45.0 ]
				}

			}
, 			{
				"box" : 				{
					"id" : "obj-43",
					"maxclass" : "button",
					"numinlets" : 1,
					"numoutlets" : 1,
					"outlettype" : [ "bang" ],
					"patching_rect" : [ 536.863831, 183.644348, 133.0, 133.0 ],
					"presentation" : 1,
					"presentation_rect" : [ 0.0, 30.0, 45.0, 45.0 ],
					"style" : "velvet"
				}

			}
, 			{
				"box" : 				{
					"id" : "obj-80",
					"maxclass" : "newobj",
					"numinlets" : 0,
					"numoutlets" : 1,
					"outlettype" : [ "" ],
					"patching_rect" : [ 705.0, 183.644348, 41.0, 22.0 ],
					"style" : "",
					"text" : "r beat"
				}

			}
, 			{
				"box" : 				{
					"id" : "obj-39",
					"maxclass" : "newobj",
					"numinlets" : 1,
					"numoutlets" : 1,
					"outlettype" : [ "" ],
					"patching_rect" : [ 69.985107, 511.0, 92.0, 22.0 ],
					"style" : "",
					"text" : "prepend param"
				}

			}
, 			{
				"box" : 				{
					"id" : "obj-22",
					"maxclass" : "newobj",
					"numinlets" : 2,
					"numoutlets" : 1,
					"outlettype" : [ "int" ],
					"patching_rect" : [ 417.485107, 507.0, 29.5, 22.0 ],
					"style" : "",
					"text" : "+ 1"
				}

			}
, 			{
				"box" : 				{
					"id" : "obj-23",
					"maxclass" : "toggle",
					"numinlets" : 1,
					"numoutlets" : 1,
					"outlettype" : [ "int" ],
					"parameter_enable" : 0,
					"patching_rect" : [ 417.485107, 475.0, 24.0, 24.0 ],
					"style" : ""
				}

			}
, 			{
				"box" : 				{
					"id" : "obj-28",
					"maxclass" : "newobj",
					"numinlets" : 3,
					"numoutlets" : 1,
					"outlettype" : [ "signal" ],
					"patching_rect" : [ 417.485107, 540.0, 80.0, 22.0 ],
					"style" : "",
					"text" : "selector~ 2 1"
				}

			}
, 			{
				"box" : 				{
					"id" : "obj-24",
					"maxclass" : "newobj",
					"numinlets" : 1,
					"numoutlets" : 2,
					"outlettype" : [ "signal", "signal" ],
					"patching_rect" : [ 478.485107, 507.0, 37.0, 22.0 ],
					"style" : "",
					"text" : "adc~"
				}

			}
, 			{
				"box" : 				{
					"id" : "obj-35",
					"maxclass" : "newobj",
					"numinlets" : 0,
					"numoutlets" : 1,
					"outlettype" : [ "" ],
					"patching_rect" : [ 371.985107, 540.0, 44.0, 22.0 ],
					"style" : "",
					"text" : "r draw"
				}

			}
, 			{
				"box" : 				{
					"format" : 6,
					"id" : "obj-79",
					"maxclass" : "flonum",
					"numinlets" : 1,
					"numoutlets" : 2,
					"outlettype" : [ "", "bang" ],
					"parameter_enable" : 0,
					"patching_rect" : [ 885.227661, 367.0, 50.0, 22.0 ],
					"presentation" : 1,
					"presentation_rect" : [ 68.166672, 75.0, 45.0, 22.0 ],
					"style" : "velvet",
					"varname" : "scale"
				}

			}
, 			{
				"box" : 				{
					"id" : "obj-77",
					"maxclass" : "newobj",
					"numinlets" : 2,
					"numoutlets" : 1,
					"outlettype" : [ "signal" ],
					"patching_rect" : [ 536.863831, 449.0, 350.242554, 22.0 ],
					"style" : "",
					"text" : "*~"
				}

			}
, 			{
				"box" : 				{
					"id" : "obj-74",
					"maxclass" : "newobj",
					"numinlets" : 2,
					"numoutlets" : 1,
					"outlettype" : [ "float" ],
					"patching_rect" : [ 417.485107, 576.0, 66.0, 22.0 ],
					"style" : "",
					"text" : "snapshot~"
				}

			}
, 			{
				"box" : 				{
					"id" : "obj-73",
					"maxclass" : "newobj",
					"numinlets" : 2,
					"numoutlets" : 1,
					"outlettype" : [ "signal" ],
					"patching_rect" : [ 447.985107, 477.0, 108.0, 22.0 ],
					"style" : "",
					"text" : "*~"
				}

			}
, 			{
				"box" : 				{
					"id" : "obj-63",
					"maxclass" : "newobj",
					"numinlets" : 2,
					"numoutlets" : 1,
					"outlettype" : [ "signal" ],
					"patching_rect" : [ 447.985107, 420.0, 71.0, 22.0 ],
					"style" : "",
					"text" : "phasor~ 10"
				}

			}
, 			{
				"box" : 				{
					"id" : "obj-61",
					"maxclass" : "newobj",
					"numinlets" : 2,
					"numoutlets" : 1,
					"outlettype" : [ "signal" ],
					"patching_rect" : [ 447.985107, 449.0, 57.0, 22.0 ],
					"style" : "",
					"text" : "triangle~"
				}

			}
, 			{
				"box" : 				{
					"id" : "obj-60",
					"maxclass" : "newobj",
					"numinlets" : 1,
					"numoutlets" : 1,
					"outlettype" : [ "" ],
					"patching_rect" : [ 417.485107, 610.0, 90.0, 22.0 ],
					"style" : "",
					"text" : "prepend shake"
				}

			}
, 			{
				"box" : 				{
					"id" : "obj-52",
					"maxclass" : "newobj",
					"numinlets" : 1,
					"numoutlets" : 1,
					"outlettype" : [ "int" ],
					"patching_rect" : [ 536.863831, 391.0, 24.0, 22.0 ],
					"style" : "",
					"text" : "t 1"
				}

			}
, 			{
				"box" : 				{
					"id" : "obj-49",
					"maxclass" : "newobj",
					"numinlets" : 1,
					"numoutlets" : 1,
					"outlettype" : [ "int" ],
					"patching_rect" : [ 574.863831, 391.0, 24.0, 22.0 ],
					"style" : "",
					"text" : "t 0"
				}

			}
, 			{
				"box" : 				{
					"id" : "obj-38",
					"maxclass" : "newobj",
					"numinlets" : 5,
					"numoutlets" : 4,
					"outlettype" : [ "signal", "signal", "", "" ],
					"patching_rect" : [ 536.863831, 420.0, 272.0, 22.0 ],
					"style" : "",
					"text" : "adsr~ 10 100 0.8 500"
				}

			}
, 			{
				"box" : 				{
					"comment" : "texture in",
					"id" : "obj-36",
					"index" : 1,
					"maxclass" : "inlet",
					"numinlets" : 0,
					"numoutlets" : 1,
					"outlettype" : [ "" ],
					"patching_rect" : [ 10.235291, 24.0, 30.0, 30.0 ],
					"style" : ""
				}

			}
, 			{
				"box" : 				{
					"id" : "obj-7",
					"maxclass" : "newobj",
					"numinlets" : 2,
					"numoutlets" : 2,
					"outlettype" : [ "", "" ],
					"patching_rect" : [ 10.235291, 244.0, 78.749817, 22.0 ],
					"style" : "",
					"text" : "gate 2 1"
				}

			}
, 			{
				"box" : 				{
					"id" : "obj-1",
					"maxclass" : "newobj",
					"numinlets" : 2,
					"numoutlets" : 1,
					"outlettype" : [ "int" ],
					"patching_rect" : [ 10.235291, 199.0, 29.5, 22.0 ],
					"style" : "",
					"text" : "+ 1"
				}

			}
, 			{
				"box" : 				{
					"comment" : "texture out",
					"id" : "obj-8",
					"index" : 1,
					"maxclass" : "outlet",
					"numinlets" : 1,
					"numoutlets" : 0,
					"patching_rect" : [ 10.235291, 610.0, 30.0, 30.0 ],
					"style" : ""
				}

			}
, 			{
				"box" : 				{
					"fontface" : 2,
					"id" : "obj-34",
					"maxclass" : "comment",
					"numinlets" : 1,
					"numoutlets" : 0,
					"patching_rect" : [ 1093.742554, 195.0, 93.0, 20.0 ],
					"style" : "",
					"text" : "pulse",
					"textjustification" : 1
				}

			}
, 			{
				"box" : 				{
					"color" : [ 0.92549, 0.364706, 0.341176, 1.0 ],
					"id" : "obj-200",
					"maxclass" : "newobj",
					"numinlets" : 2,
					"numoutlets" : 2,
					"outlettype" : [ "jit_gl_texture", "" ],
					"patching_rect" : [ 69.985107, 540.0, 187.0, 22.0 ],
					"style" : "",
					"text" : "jit.gl.slab mainout @file shake.jxs"
				}

			}
 ],
		"lines" : [ 			{
				"patchline" : 				{
					"destination" : [ "obj-7", 0 ],
					"midpoints" : [ 19.735291, 222.0, 19.735291, 222.0 ],
					"source" : [ "obj-1", 0 ]
				}

			}
, 			{
				"patchline" : 				{
					"destination" : [ "obj-3", 0 ],
					"midpoints" : [ 335.409241, 96.0, 335.409241, 96.0 ],
					"source" : [ "obj-10", 0 ]
				}

			}
, 			{
				"patchline" : 				{
					"destination" : [ "obj-9", 0 ],
					"midpoints" : [ 122.742554, 444.0, 122.742554, 444.0 ],
					"source" : [ "obj-11", 0 ]
				}

			}
, 			{
				"patchline" : 				{
					"destination" : [ "obj-17", 0 ],
					"source" : [ "obj-12", 0 ]
				}

			}
, 			{
				"patchline" : 				{
					"destination" : [ "obj-19", 0 ],
					"source" : [ "obj-13", 0 ]
				}

			}
, 			{
				"patchline" : 				{
					"destination" : [ "obj-82", 0 ],
					"midpoints" : [ 151.738922, 189.0, 151.738922, 189.0 ],
					"source" : [ "obj-14", 0 ]
				}

			}
, 			{
				"patchline" : 				{
					"destination" : [ "obj-9", 1 ],
					"midpoints" : [ 174.5, 444.0, 174.5, 444.0 ],
					"source" : [ "obj-15", 0 ]
				}

			}
, 			{
				"patchline" : 				{
					"destination" : [ "obj-1", 0 ],
					"midpoints" : [ 19.735291, 186.0, 19.735291, 186.0 ],
					"source" : [ "obj-16", 0 ]
				}

			}
, 			{
				"patchline" : 				{
					"destination" : [ "obj-40", 0 ],
					"midpoints" : [ 1112.742554, 330.0, 1045.742554, 330.0 ],
					"order" : 1,
					"source" : [ "obj-17", 0 ]
				}

			}
, 			{
				"patchline" : 				{
					"destination" : [ "obj-47", 0 ],
					"midpoints" : [ 1112.742554, 330.0, 1112.742554, 330.0 ],
					"order" : 0,
					"source" : [ "obj-17", 0 ]
				}

			}
, 			{
				"patchline" : 				{
					"destination" : [ "obj-75", 0 ],
					"source" : [ "obj-18", 0 ]
				}

			}
, 			{
				"patchline" : 				{
					"destination" : [ "obj-5", 0 ],
					"midpoints" : [ 699.363831, 249.0, 699.363831, 249.0 ],
					"order" : 0,
					"source" : [ "obj-19", 0 ]
				}

			}
, 			{
				"patchline" : 				{
					"destination" : [ "obj-52", 0 ],
					"midpoints" : [ 699.363831, 306.0, 674.242554, 306.0, 674.242554, 351.0, 546.363831, 351.0 ],
					"order" : 1,
					"source" : [ "obj-19", 0 ]
				}

			}
, 			{
				"patchline" : 				{
					"destination" : [ "obj-10", 0 ],
					"midpoints" : [ 335.409241, 69.0, 335.409241, 69.0 ],
					"source" : [ "obj-2", 0 ]
				}

			}
, 			{
				"patchline" : 				{
					"destination" : [ "obj-39", 0 ],
					"midpoints" : [ 238.742554, 507.0, 79.485107, 507.0 ],
					"source" : [ "obj-20", 0 ]
				}

			}
, 			{
				"patchline" : 				{
					"destination" : [ "obj-8", 0 ],
					"midpoints" : [ 79.485107, 603.0, 19.735291, 603.0 ],
					"source" : [ "obj-200", 0 ]
				}

			}
, 			{
				"patchline" : 				{
					"destination" : [ "obj-49", 0 ],
					"midpoints" : [ 546.363831, 378.0, 584.363831, 378.0 ],
					"source" : [ "obj-204", 0 ]
				}

			}
, 			{
				"patchline" : 				{
					"destination" : [ "obj-52", 0 ],
					"midpoints" : [ 584.363831, 378.0, 546.363831, 378.0 ],
					"source" : [ "obj-204", 1 ]
				}

			}
, 			{
				"patchline" : 				{
					"destination" : [ "obj-63", 0 ],
					"midpoints" : [ 456.363831, 414.0, 457.485107, 414.0 ],
					"source" : [ "obj-21", 0 ]
				}

			}
, 			{
				"patchline" : 				{
					"destination" : [ "obj-28", 0 ],
					"midpoints" : [ 426.985107, 531.0, 426.985107, 531.0 ],
					"source" : [ "obj-22", 0 ]
				}

			}
, 			{
				"patchline" : 				{
					"destination" : [ "obj-22", 0 ],
					"midpoints" : [ 426.985107, 501.0, 426.985107, 501.0 ],
					"source" : [ "obj-23", 0 ]
				}

			}
, 			{
				"patchline" : 				{
					"destination" : [ "obj-28", 2 ],
					"midpoints" : [ 487.985107, 531.0, 487.985107, 531.0 ],
					"source" : [ "obj-24", 0 ]
				}

			}
, 			{
				"patchline" : 				{
					"destination" : [ "obj-39", 0 ],
					"midpoints" : [ 122.742554, 384.0, 79.485107, 384.0 ],
					"source" : [ "obj-25", 0 ]
				}

			}
, 			{
				"patchline" : 				{
					"destination" : [ "obj-46", 0 ],
					"source" : [ "obj-26", 0 ]
				}

			}
, 			{
				"patchline" : 				{
					"destination" : [ "obj-20", 0 ],
					"midpoints" : [ 238.742554, 444.0, 238.742554, 444.0 ],
					"source" : [ "obj-27", 0 ]
				}

			}
, 			{
				"patchline" : 				{
					"destination" : [ "obj-74", 0 ],
					"midpoints" : [ 426.985107, 564.0, 426.985107, 564.0 ],
					"source" : [ "obj-28", 0 ]
				}

			}
, 			{
				"patchline" : 				{
					"destination" : [ "obj-25", 2 ],
					"midpoints" : [ 238.075882, 336.0, 238.075898, 336.0 ],
					"source" : [ "obj-29", 0 ]
				}

			}
, 			{
				"patchline" : 				{
					"destination" : [ "obj-25", 1 ],
					"midpoints" : [ 180.409225, 336.0, 180.409226, 336.0 ],
					"source" : [ "obj-30", 0 ]
				}

			}
, 			{
				"patchline" : 				{
					"destination" : [ "obj-25", 3 ],
					"midpoints" : [ 295.742554, 336.0, 295.742569, 336.0 ],
					"source" : [ "obj-31", 0 ]
				}

			}
, 			{
				"patchline" : 				{
					"destination" : [ "obj-25", 4 ],
					"midpoints" : [ 353.409241, 336.0, 353.409241, 336.0 ],
					"source" : [ "obj-33", 0 ]
				}

			}
, 			{
				"patchline" : 				{
					"destination" : [ "obj-74", 0 ],
					"midpoints" : [ 381.485107, 573.0, 426.985107, 573.0 ],
					"source" : [ "obj-35", 0 ]
				}

			}
, 			{
				"patchline" : 				{
					"destination" : [ "obj-86", 0 ],
					"midpoints" : [ 19.735291, 57.0, 19.735291, 57.0 ],
					"source" : [ "obj-36", 0 ]
				}

			}
, 			{
				"patchline" : 				{
					"destination" : [ "obj-77", 0 ],
					"midpoints" : [ 546.363831, 444.0, 546.363831, 444.0 ],
					"source" : [ "obj-38", 0 ]
				}

			}
, 			{
				"patchline" : 				{
					"destination" : [ "obj-200", 0 ],
					"midpoints" : [ 79.485107, 534.0, 79.485107, 534.0 ],
					"source" : [ "obj-39", 0 ]
				}

			}
, 			{
				"patchline" : 				{
					"destination" : [ "obj-68", 0 ],
					"midpoints" : [ 1045.742554, 372.0, 1045.742554, 372.0 ],
					"source" : [ "obj-40", 0 ]
				}

			}
, 			{
				"patchline" : 				{
					"destination" : [ "obj-77", 1 ],
					"midpoints" : [ 878.727661, 444.0, 877.606385, 444.0 ],
					"source" : [ "obj-41", 0 ]
				}

			}
, 			{
				"patchline" : 				{
					"destination" : [ "obj-16", 0 ],
					"midpoints" : [ 1217.742554, 360.0, 1088.242554, 360.0, 1088.242554, 243.0, 761.242554, 243.0, 761.242554, 150.0, 107.242554, 150.0, 107.242554, 156.0, 35.242554, 156.0, 35.242554, 156.0, 19.735291, 156.0 ],
					"source" : [ "obj-42", 0 ]
				}

			}
, 			{
				"patchline" : 				{
					"destination" : [ "obj-38", 1 ],
					"midpoints" : [ 609.863831, 414.0, 609.613831, 414.0 ],
					"source" : [ "obj-44", 0 ]
				}

			}
, 			{
				"patchline" : 				{
					"destination" : [ "obj-26", 0 ],
					"source" : [ "obj-45", 1 ]
				}

			}
, 			{
				"patchline" : 				{
					"destination" : [ "obj-66", 0 ],
					"source" : [ "obj-46", 0 ]
				}

			}
, 			{
				"patchline" : 				{
					"color" : [ 0.695792, 0.0, 0.014457, 1.0 ],
					"destination" : [ "obj-49", 0 ],
					"midpoints" : [ 1150.742554, 408.0, 914.242554, 408.0, 914.242554, 399.0, 860.242554, 399.0, 860.242554, 306.0, 674.242554, 306.0, 674.242554, 351.0, 584.363831, 351.0 ],
					"source" : [ "obj-47", 1 ]
				}

			}
, 			{
				"patchline" : 				{
					"color" : [ 0.695792, 0.0, 0.014457, 1.0 ],
					"destination" : [ "obj-52", 0 ],
					"midpoints" : [ 1112.742554, 408.0, 914.242554, 408.0, 914.242554, 399.0, 860.242554, 399.0, 860.242554, 306.0, 674.242554, 306.0, 674.242554, 351.0, 546.363831, 351.0 ],
					"source" : [ "obj-47", 0 ]
				}

			}
, 			{
				"patchline" : 				{
					"destination" : [ "obj-12", 0 ],
					"source" : [ "obj-48", 1 ]
				}

			}
, 			{
				"patchline" : 				{
					"destination" : [ "obj-38", 0 ],
					"midpoints" : [ 584.363831, 414.0, 546.363831, 414.0 ],
					"source" : [ "obj-49", 0 ]
				}

			}
, 			{
				"patchline" : 				{
					"destination" : [ "obj-49", 0 ],
					"midpoints" : [ 699.363831, 345.0, 584.363831, 345.0 ],
					"source" : [ "obj-5", 0 ]
				}

			}
, 			{
				"patchline" : 				{
					"destination" : [ "obj-38", 2 ],
					"midpoints" : [ 673.363831, 414.0, 672.863831, 414.0 ],
					"source" : [ "obj-50", 0 ]
				}

			}
, 			{
				"patchline" : 				{
					"destination" : [ "obj-38", 3 ],
					"midpoints" : [ 736.863831, 414.0, 736.113831, 414.0 ],
					"source" : [ "obj-51", 0 ]
				}

			}
, 			{
				"patchline" : 				{
					"destination" : [ "obj-38", 0 ],
					"midpoints" : [ 546.363831, 414.0, 546.363831, 414.0 ],
					"source" : [ "obj-52", 0 ]
				}

			}
, 			{
				"patchline" : 				{
					"destination" : [ "obj-38", 4 ],
					"midpoints" : [ 800.363831, 414.0, 799.363831, 414.0 ],
					"source" : [ "obj-53", 0 ]
				}

			}
, 			{
				"patchline" : 				{
					"destination" : [ "obj-56", 0 ],
					"midpoints" : [ 800.363831, 345.0, 609.863831, 345.0 ],
					"order" : 3,
					"source" : [ "obj-54", 0 ]
				}

			}
, 			{
				"patchline" : 				{
					"destination" : [ "obj-57", 0 ],
					"midpoints" : [ 800.363831, 345.0, 673.363831, 345.0 ],
					"order" : 2,
					"source" : [ "obj-54", 0 ]
				}

			}
, 			{
				"patchline" : 				{
					"destination" : [ "obj-58", 0 ],
					"midpoints" : [ 800.363831, 345.0, 749.242554, 345.0, 749.242554, 360.0, 736.863831, 360.0 ],
					"order" : 1,
					"source" : [ "obj-54", 0 ]
				}

			}
, 			{
				"patchline" : 				{
					"destination" : [ "obj-59", 0 ],
					"midpoints" : [ 800.363831, 345.0, 800.363831, 345.0 ],
					"order" : 0,
					"source" : [ "obj-54", 0 ]
				}

			}
, 			{
				"patchline" : 				{
					"destination" : [ "obj-44", 0 ],
					"midpoints" : [ 609.863831, 390.0, 609.863831, 390.0 ],
					"source" : [ "obj-56", 0 ]
				}

			}
, 			{
				"patchline" : 				{
					"destination" : [ "obj-50", 0 ],
					"midpoints" : [ 673.363831, 390.0, 673.363831, 390.0 ],
					"source" : [ "obj-57", 0 ]
				}

			}
, 			{
				"patchline" : 				{
					"destination" : [ "obj-51", 0 ],
					"midpoints" : [ 736.863831, 390.0, 736.863831, 390.0 ],
					"source" : [ "obj-58", 0 ]
				}

			}
, 			{
				"patchline" : 				{
					"destination" : [ "obj-53", 0 ],
					"midpoints" : [ 800.363831, 390.0, 800.363831, 390.0 ],
					"source" : [ "obj-59", 0 ]
				}

			}
, 			{
				"patchline" : 				{
					"destination" : [ "obj-39", 0 ],
					"midpoints" : [ 122.742554, 495.0, 79.485107, 495.0 ],
					"source" : [ "obj-6", 0 ]
				}

			}
, 			{
				"patchline" : 				{
					"destination" : [ "obj-39", 0 ],
					"midpoints" : [ 426.985107, 633.0, 56.242554, 633.0, 56.242554, 507.0, 79.485107, 507.0 ],
					"source" : [ "obj-60", 0 ]
				}

			}
, 			{
				"patchline" : 				{
					"destination" : [ "obj-73", 0 ],
					"midpoints" : [ 457.485107, 474.0, 457.485107, 474.0 ],
					"source" : [ "obj-61", 0 ]
				}

			}
, 			{
				"patchline" : 				{
					"destination" : [ "obj-18", 0 ],
					"source" : [ "obj-62", 1 ]
				}

			}
, 			{
				"patchline" : 				{
					"destination" : [ "obj-61", 0 ],
					"midpoints" : [ 457.485107, 444.0, 457.485107, 444.0 ],
					"source" : [ "obj-63", 0 ]
				}

			}
, 			{
				"patchline" : 				{
					"destination" : [ "obj-79", 0 ],
					"midpoints" : [ 894.727661, 363.0, 894.727661, 363.0 ],
					"source" : [ "obj-64", 0 ]
				}

			}
, 			{
				"patchline" : 				{
					"destination" : [ "obj-27", 0 ],
					"midpoints" : [ 1299.5, 389.23941, 238.742554, 389.23941 ],
					"source" : [ "obj-66", 0 ]
				}

			}
, 			{
				"patchline" : 				{
					"destination" : [ "obj-41", 0 ],
					"midpoints" : [ 1083.5, 414.0, 878.727661, 414.0 ],
					"source" : [ "obj-68", 1 ]
				}

			}
, 			{
				"patchline" : 				{
					"destination" : [ "obj-200", 0 ],
					"midpoints" : [ 79.485108, 498.0, 56.242554, 498.0, 56.242554, 534.0, 79.485107, 534.0 ],
					"source" : [ "obj-7", 1 ]
				}

			}
, 			{
				"patchline" : 				{
					"destination" : [ "obj-8", 0 ],
					"midpoints" : [ 19.735291, 267.0, 19.735291, 267.0 ],
					"source" : [ "obj-7", 0 ]
				}

			}
, 			{
				"patchline" : 				{
					"destination" : [ "obj-64", 0 ],
					"midpoints" : [ 894.727661, 336.0, 894.727661, 336.0 ],
					"source" : [ "obj-71", 0 ]
				}

			}
, 			{
				"patchline" : 				{
					"destination" : [ "obj-28", 1 ],
					"midpoints" : [ 457.485107, 501.0, 457.485107, 501.0 ],
					"source" : [ "obj-73", 0 ]
				}

			}
, 			{
				"patchline" : 				{
					"destination" : [ "obj-60", 0 ],
					"midpoints" : [ 426.985107, 600.0, 426.985107, 600.0 ],
					"source" : [ "obj-74", 0 ]
				}

			}
, 			{
				"patchline" : 				{
					"destination" : [ "obj-42", 0 ],
					"midpoints" : [ 1217.742554, 330.0, 1217.742554, 330.0 ],
					"source" : [ "obj-75", 0 ]
				}

			}
, 			{
				"patchline" : 				{
					"destination" : [ "obj-73", 1 ],
					"midpoints" : [ 546.363831, 474.0, 546.485107, 474.0 ],
					"source" : [ "obj-77", 0 ]
				}

			}
, 			{
				"patchline" : 				{
					"destination" : [ "obj-41", 1 ],
					"midpoints" : [ 894.727661, 390.0, 894.727661, 390.0 ],
					"source" : [ "obj-79", 0 ]
				}

			}
, 			{
				"patchline" : 				{
					"destination" : [ "obj-13", 1 ],
					"midpoints" : [ 714.5, 207.0, 714.363831, 207.0 ],
					"source" : [ "obj-80", 0 ]
				}

			}
, 			{
				"patchline" : 				{
					"destination" : [ "obj-200", 0 ],
					"midpoints" : [ 151.738922, 324.0, 56.242554, 324.0, 56.242554, 534.0, 79.485107, 534.0 ],
					"source" : [ "obj-81", 0 ]
				}

			}
, 			{
				"patchline" : 				{
					"destination" : [ "obj-81", 0 ],
					"midpoints" : [ 192.238922, 234.0, 152.242554, 234.0, 152.242554, 240.0, 151.738922, 240.0 ],
					"source" : [ "obj-82", 1 ]
				}

			}
, 			{
				"patchline" : 				{
					"destination" : [ "obj-7", 1 ],
					"midpoints" : [ 19.735291, 123.0, -3.757446, 123.0, -3.757446, 231.0, 79.485108, 231.0 ],
					"source" : [ "obj-84", 0 ]
				}

			}
, 			{
				"patchline" : 				{
					"destination" : [ "obj-13", 0 ],
					"source" : [ "obj-85", 0 ]
				}

			}
, 			{
				"patchline" : 				{
					"destination" : [ "obj-82", 0 ],
					"midpoints" : [ 151.738923, 93.0, 137.242554, 93.0, 137.242554, 150.0, 128.242554, 150.0, 128.242554, 207.0, 151.738922, 207.0 ],
					"order" : 0,
					"source" : [ "obj-86", 1 ]
				}

			}
, 			{
				"patchline" : 				{
					"destination" : [ "obj-84", 0 ],
					"midpoints" : [ 19.735291, 93.0, 19.735291, 93.0 ],
					"source" : [ "obj-86", 0 ]
				}

			}
, 			{
				"patchline" : 				{
					"destination" : [ "obj-87", 0 ],
					"midpoints" : [ 151.738923, 93.0, 151.738922, 93.0 ],
					"order" : 1,
					"source" : [ "obj-86", 1 ]
				}

			}
, 			{
				"patchline" : 				{
					"destination" : [ "obj-8", 0 ],
					"midpoints" : [ 151.738922, 150.0, 107.242554, 150.0, 107.242554, 324.0, 19.735291, 324.0 ],
					"source" : [ "obj-87", 0 ]
				}

			}
, 			{
				"patchline" : 				{
					"destination" : [ "obj-41", 0 ],
					"midpoints" : [ 878.727661, 306.0, 878.727661, 306.0 ],
					"source" : [ "obj-88", 0 ]
				}

			}
, 			{
				"patchline" : 				{
					"destination" : [ "obj-6", 0 ],
					"midpoints" : [ 122.742554, 468.0, 122.742554, 468.0 ],
					"source" : [ "obj-9", 0 ]
				}

			}
, 			{
				"patchline" : 				{
					"destination" : [ "obj-16", 0 ],
					"midpoints" : [ 19.735291, 153.0, 19.735291, 153.0 ],
					"source" : [ "obj-91", 0 ]
				}

			}
 ],
		"styles" : [ 			{
				"name" : "AudioStatus_Menu",
				"default" : 				{
					"bgfillcolor" : 					{
						"type" : "color",
						"color" : [ 0.294118, 0.313726, 0.337255, 1 ],
						"color1" : [ 0.454902, 0.462745, 0.482353, 0.0 ],
						"color2" : [ 0.290196, 0.309804, 0.301961, 1.0 ],
						"angle" : 270.0,
						"proportion" : 0.39,
						"autogradient" : 0
					}

				}
,
				"parentstyle" : "",
				"multi" : 0
			}
, 			{
				"name" : "newobjBrown-1",
				"default" : 				{
					"accentcolor" : [ 0.654902, 0.572549, 0.376471, 1.0 ]
				}
,
				"parentstyle" : "",
				"multi" : 0
			}
, 			{
				"name" : "numberGold-1",
				"default" : 				{
					"accentcolor" : [ 0.764706, 0.592157, 0.101961, 1.0 ]
				}
,
				"parentstyle" : "",
				"multi" : 0
			}
 ],
		"bgfillcolor_type" : "gradient",
		"bgfillcolor_color1" : [ 0.376471, 0.384314, 0.4, 1.0 ],
		"bgfillcolor_color2" : [ 0.290196, 0.309804, 0.301961, 1.0 ],
		"bgfillcolor_color" : [ 0.290196, 0.309804, 0.301961, 1.0 ],
		"bgfillcolor_angle" : 270.0,
		"bgfillcolor_proportion" : 0.39
	}

}
