{
	"patcher" : 	{
		"fileversion" : 1,
		"appversion" : 		{
			"major" : 7,
			"minor" : 2,
			"revision" : 2,
			"architecture" : "x86",
			"modernui" : 1
		}
,
		"rect" : [ 34.0, 76.0, 899.0, 658.0 ],
		"bgcolor" : [ 0.194435, 0.206388, 0.224352, 1.0 ],
		"bglocked" : 0,
		"openinpresentation" : 1,
		"default_fontsize" : 12.0,
		"default_fontface" : 0,
		"default_fontname" : "Arial",
		"gridonopen" : 1,
		"gridsize" : [ 15.0, 15.0 ],
		"gridsnaponopen" : 1,
		"objectsnaponopen" : 1,
		"statusbarvisible" : 2,
		"toolbarvisible" : 1,
		"lefttoolbarpinned" : 0,
		"toptoolbarpinned" : 0,
		"righttoolbarpinned" : 0,
		"bottomtoolbarpinned" : 0,
		"toolbars_unpinned_last_save" : 0,
		"tallnewobj" : 0,
		"boxanimatetime" : 200,
		"enablehscroll" : 1,
		"enablevscroll" : 1,
		"devicewidth" : 0.0,
		"description" : "",
		"digest" : "",
		"tags" : "",
		"style" : "velvet",
		"subpatcher_template" : "",
		"boxes" : [ 			{
				"box" : 				{
					"bgmode" : 0,
					"border" : 0,
					"clickthrough" : 0,
					"enablehscroll" : 0,
					"enablevscroll" : 0,
					"id" : "obj-21",
					"lockeddragscroll" : 0,
					"maxclass" : "bpatcher",
					"name" : "jit.hausu.sharpen.maxpat",
					"numinlets" : 1,
					"numoutlets" : 1,
					"offset" : [ 0.0, 0.0 ],
					"outlettype" : [ "jit_gl_texture" ],
					"patching_rect" : [ 621.0, 515.411865, 90.0, 150.0 ],
					"presentation" : 1,
					"presentation_rect" : [ 498.0, 370.0, 90.0, 91.0 ],
					"viewvisibility" : 1
				}

			}
, 			{
				"box" : 				{
					"bgmode" : 0,
					"border" : 0,
					"clickthrough" : 0,
					"enablehscroll" : 0,
					"enablevscroll" : 0,
					"id" : "obj-18",
					"lockeddragscroll" : 0,
					"maxclass" : "bpatcher",
					"name" : "jit.hausu.midicontroller.maxpat",
					"numinlets" : 0,
					"numoutlets" : 0,
					"offset" : [ 0.0, 0.0 ],
					"patching_rect" : [ 516.0, 0.0, 212.0, 30.0 ],
					"presentation" : 1,
					"presentation_rect" : [ 222.0, 0.0, 212.0, 30.0 ],
					"viewvisibility" : 1
				}

			}
, 			{
				"box" : 				{
					"bgmode" : 0,
					"border" : 0,
					"clickthrough" : 0,
					"enablehscroll" : 0,
					"enablevscroll" : 0,
					"id" : "obj-2",
					"lockeddragscroll" : 0,
					"maxclass" : "bpatcher",
					"name" : "jit.hausu.playbackcontroller.maxpat",
					"numinlets" : 0,
					"numoutlets" : 1,
					"offset" : [ 0.0, 0.0 ],
					"outlettype" : [ "jit_gl_texture" ],
					"patching_rect" : [ 734.833496, 0.0, 125.0, 129.666672 ],
					"presentation" : 1,
					"presentation_rect" : [ 27.666664, 705.0, 125.0, 129.666672 ],
					"viewvisibility" : 1
				}

			}
, 			{
				"box" : 				{
					"bgmode" : 0,
					"border" : 0,
					"clickthrough" : 0,
					"enablehscroll" : 0,
					"enablevscroll" : 0,
					"id" : "obj-9",
					"lockeddragscroll" : 0,
					"maxclass" : "bpatcher",
					"name" : "jit.hausu.audioinput.maxpat",
					"numinlets" : 0,
					"numoutlets" : 0,
					"offset" : [ 0.0, 0.0 ],
					"patching_rect" : [ 258.0, 0.0, 256.0, 91.0 ],
					"presentation" : 1,
					"presentation_rect" : [ 1245.0, 60.0, 256.0, 91.0 ],
					"viewvisibility" : 1
				}

			}
, 			{
				"box" : 				{
					"bgmode" : 0,
					"border" : 0,
					"clickthrough" : 0,
					"enablehscroll" : 0,
					"enablevscroll" : 0,
					"id" : "obj-7",
					"lockeddragscroll" : 0,
					"maxclass" : "bpatcher",
					"name" : "jit.hausu.bonk.maxpat",
					"numinlets" : 0,
					"numoutlets" : 0,
					"offset" : [ 0.0, 0.0 ],
					"patching_rect" : [ 0.0, 0.0, 256.0, 91.0 ],
					"presentation" : 1,
					"presentation_rect" : [ 1245.0, 150.0, 256.0, 91.0 ],
					"viewvisibility" : 1
				}

			}
, 			{
				"box" : 				{
					"bgmode" : 0,
					"border" : 0,
					"clickthrough" : 0,
					"enablehscroll" : 0,
					"enablevscroll" : 0,
					"id" : "obj-6",
					"lockeddragscroll" : 0,
					"maxclass" : "bpatcher",
					"name" : "jit.hausu.xfade.maxpat",
					"numinlets" : 0,
					"numoutlets" : 0,
					"offset" : [ 0.0, 0.0 ],
					"patching_rect" : [ 855.0, 390.82373, 315.666656, 129.666672 ],
					"presentation" : 1,
					"presentation_rect" : [ 468.0, 16.0, 315.666656, 129.666672 ],
					"viewvisibility" : 1
				}

			}
, 			{
				"box" : 				{
					"bgmode" : 0,
					"border" : 0,
					"clickthrough" : 0,
					"enablehscroll" : 0,
					"enablevscroll" : 0,
					"id" : "obj-5",
					"lockeddragscroll" : 0,
					"maxclass" : "bpatcher",
					"name" : "jit.hausu.gaussianblur.maxpat",
					"numinlets" : 1,
					"numoutlets" : 1,
					"offset" : [ 0.0, 0.0 ],
					"outlettype" : [ "jit_gl_texture" ],
					"patching_rect" : [ 861.833496, 0.0, 331.249878, 130.823761 ],
					"presentation" : 1,
					"presentation_rect" : [ 861.833496, 0.0, 331.249878, 130.823761 ],
					"viewvisibility" : 1
				}

			}
, 			{
				"box" : 				{
					"bgmode" : 0,
					"border" : 0,
					"clickthrough" : 0,
					"enablehscroll" : 0,
					"enablevscroll" : 0,
					"id" : "obj-4",
					"lockeddragscroll" : 0,
					"maxclass" : "bpatcher",
					"name" : "jit.hausu.framedelay.maxpat",
					"numinlets" : 1,
					"numoutlets" : 1,
					"offset" : [ 0.0, 0.0 ],
					"outlettype" : [ "jit_gl_texture" ],
					"patching_rect" : [ 223.0, 328.0, 264.066956, 115.530518 ],
					"presentation" : 1,
					"presentation_rect" : [ 1236.933105, 258.293243, 264.066956, 115.530518 ],
					"viewvisibility" : 1
				}

			}
, 			{
				"box" : 				{
					"bgmode" : 0,
					"border" : 0,
					"clickthrough" : 0,
					"enablehscroll" : 0,
					"enablevscroll" : 0,
					"id" : "obj-3",
					"lockeddragscroll" : 0,
					"maxclass" : "bpatcher",
					"name" : "jit.hausu.brightnessgraph.maxpat",
					"numinlets" : 1,
					"numoutlets" : 2,
					"offset" : [ 0.0, 0.0 ],
					"outlettype" : [ "", "jit_matrix" ],
					"patching_rect" : [ 223.0, 114.0, 375.066956, 190.177704 ],
					"presentation" : 1,
					"presentation_rect" : [ 861.833496, 375.823761, 331.249878, 190.177704 ],
					"viewvisibility" : 1
				}

			}
, 			{
				"box" : 				{
					"bgmode" : 0,
					"border" : 0,
					"clickthrough" : 0,
					"enablehscroll" : 0,
					"enablevscroll" : 0,
					"id" : "obj-1",
					"lockeddragscroll" : 0,
					"maxclass" : "bpatcher",
					"name" : "jit.hausu.tempo.maxpat",
					"numinlets" : 0,
					"numoutlets" : 0,
					"offset" : [ 0.0, 0.0 ],
					"patching_rect" : [ 0.0, 225.299469, 150.0, 148.524292 ],
					"presentation" : 1,
					"presentation_rect" : [ 0.0, 226.475708, 212.0, 174.833252 ],
					"viewvisibility" : 1
				}

			}
, 			{
				"box" : 				{
					"bgmode" : 0,
					"border" : 0,
					"clickthrough" : 0,
					"enablehscroll" : 0,
					"enablevscroll" : 0,
					"id" : "obj-30",
					"lockeddragscroll" : 0,
					"maxclass" : "bpatcher",
					"name" : "jit.hausu.colorscale.maxpat",
					"numinlets" : 1,
					"numoutlets" : 1,
					"offset" : [ 0.0, 0.0 ],
					"outlettype" : [ "jit_gl_texture" ],
					"patching_rect" : [ 861.833496, 132.823761, 331.249878, 241.0 ],
					"presentation" : 1,
					"presentation_rect" : [ 861.833496, 132.823761, 331.249878, 241.0 ],
					"viewvisibility" : 1
				}

			}
, 			{
				"box" : 				{
					"bgmode" : 0,
					"border" : 0,
					"clickthrough" : 0,
					"enablehscroll" : 0,
					"enablevscroll" : 0,
					"id" : "obj-29",
					"lockeddragscroll" : 0,
					"maxclass" : "bpatcher",
					"name" : "jit.hausu.saturation.maxpat",
					"numinlets" : 1,
					"numoutlets" : 1,
					"offset" : [ 0.0, 0.0 ],
					"outlettype" : [ "jit_gl_texture" ],
					"patching_rect" : [ 621.0, 266.0, 90.0, 225.0 ],
					"presentation" : 1,
					"presentation_rect" : [ 401.0, 463.0, 90.0, 180.0 ],
					"viewvisibility" : 1
				}

			}
, 			{
				"box" : 				{
					"bgmode" : 0,
					"border" : 0,
					"clickthrough" : 0,
					"enablehscroll" : 0,
					"enablevscroll" : 0,
					"id" : "obj-28",
					"lockeddragscroll" : 0,
					"maxclass" : "bpatcher",
					"name" : "jit.hausu.huerot.maxpat",
					"numinlets" : 1,
					"numoutlets" : 1,
					"offset" : [ 0.0, 0.0 ],
					"outlettype" : [ "jit_gl_texture" ],
					"patching_rect" : [ 621.0, 114.0, 90.0, 150.0 ],
					"presentation" : 1,
					"presentation_rect" : [ 401.0, 370.0, 90.0, 91.0 ],
					"viewvisibility" : 1
				}

			}
, 			{
				"box" : 				{
					"bgmode" : 0,
					"border" : 0,
					"clickthrough" : 0,
					"enablehscroll" : 0,
					"enablevscroll" : 0,
					"id" : "obj-25",
					"lockeddragscroll" : 0,
					"maxclass" : "bpatcher",
					"name" : "jit.hausu.freezeflicker.maxpat",
					"numinlets" : 3,
					"numoutlets" : 0,
					"offset" : [ 0.0, 0.0 ],
					"patching_rect" : [ 0.0, 93.0, 212.0, 131.475708 ],
					"presentation" : 1,
					"presentation_rect" : [ 0.0, 0.0, 212.0, 131.475708 ],
					"viewvisibility" : 1
				}

			}
, 			{
				"box" : 				{
					"bgmode" : 0,
					"border" : 0,
					"clickthrough" : 0,
					"enablehscroll" : 0,
					"enablevscroll" : 0,
					"id" : "obj-24",
					"lockeddragscroll" : 0,
					"maxclass" : "bpatcher",
					"name" : "jit.hausu.pixeldragger.maxpat",
					"numinlets" : 1,
					"numoutlets" : 2,
					"offset" : [ 0.0, 0.0 ],
					"outlettype" : [ "jit_gl_texture", "" ],
					"patching_rect" : [ 223.0, 459.0, 375.066956, 199.059509 ],
					"presentation" : 1,
					"presentation_rect" : [ 449.0, 150.0, 375.066956, 199.059509 ],
					"viewvisibility" : 1
				}

			}
, 			{
				"box" : 				{
					"bgmode" : 0,
					"border" : 0,
					"clickthrough" : 0,
					"enablehscroll" : 0,
					"enablevscroll" : 0,
					"id" : "obj-23",
					"lockeddragscroll" : 0,
					"maxclass" : "bpatcher",
					"name" : "jit.hausu.pingpongrate.maxpat",
					"numinlets" : 0,
					"numoutlets" : 0,
					"offset" : [ 0.0, 0.0 ],
					"patching_rect" : [ 6.5, 409.50058, 167.0, 121.747162 ],
					"presentation" : 1,
					"presentation_rect" : [ 222.0, 33.0, 212.0, 132.747162 ],
					"viewvisibility" : 1
				}

			}
, 			{
				"box" : 				{
					"bgmode" : 0,
					"border" : 0,
					"clickthrough" : 0,
					"enablehscroll" : 0,
					"enablevscroll" : 0,
					"id" : "obj-17",
					"lockeddragscroll" : 0,
					"maxclass" : "bpatcher",
					"name" : "jit.hausu.randposition.maxpat",
					"numinlets" : 0,
					"numoutlets" : 1,
					"offset" : [ 0.0, 0.0 ],
					"outlettype" : [ "bang" ],
					"patching_rect" : [ 6.5, 540.0, 167.0, 121.50058 ],
					"presentation" : 1,
					"presentation_rect" : [ 222.0, 150.0, 212.0, 130.50058 ],
					"viewvisibility" : 1
				}

			}
, 			{
				"box" : 				{
					"bgmode" : 0,
					"border" : 0,
					"clickthrough" : 0,
					"enablehscroll" : 0,
					"enablevscroll" : 0,
					"id" : "obj-15",
					"lockeddragscroll" : 0,
					"maxclass" : "bpatcher",
					"name" : "jit.hausu.playlister.maxpat",
					"numinlets" : 2,
					"numoutlets" : 2,
					"offset" : [ 0.0, 0.0 ],
					"outlettype" : [ "", "" ],
					"patching_rect" : [ 855.0, 525.0, 295.609619, 130.823761 ],
					"presentation" : 1,
					"presentation_rect" : [ 879.653625, 568.001465, 295.609619, 130.823761 ],
					"viewvisibility" : 1
				}

			}
, 			{
				"box" : 				{
					"id" : "obj-81",
					"maxclass" : "message",
					"numinlets" : 2,
					"numoutlets" : 1,
					"outlettype" : [ "" ],
					"patching_rect" : [ 643.249756, 707.939026, 141.0, 22.0 ],
					"style" : "",
					"text" : "servername syphonMain"
				}

			}
, 			{
				"box" : 				{
					"id" : "obj-83",
					"maxclass" : "newobj",
					"numinlets" : 2,
					"numoutlets" : 1,
					"outlettype" : [ "" ],
					"patching_rect" : [ 643.249756, 740.139038, 105.0, 22.0 ],
					"style" : "",
					"text" : "jit.gl.syphonserver"
				}

			}
, 			{
				"box" : 				{
					"id" : "obj-195",
					"maxclass" : "newobj",
					"numinlets" : 1,
					"numoutlets" : 2,
					"outlettype" : [ "jit_matrix", "" ],
					"patching_rect" : [ 370.249756, 740.139038, 249.0, 22.0 ],
					"style" : "",
					"text" : "jit.gl.videoplane mainout @transform_reset 2"
				}

			}
, 			{
				"box" : 				{
					"id" : "obj-27",
					"linecount" : 2,
					"maxclass" : "newobj",
					"numinlets" : 1,
					"numoutlets" : 3,
					"outlettype" : [ "", "bang", "" ],
					"patching_rect" : [ 1200.734619, 685.771729, 397.0, 35.0 ],
					"style" : "",
					"text" : "jit.world mainout @displaylink 0 @enable 1 @shared 1 @output_texture 1"
				}

			}
, 			{
				"box" : 				{
					"id" : "obj-97",
					"maxclass" : "newobj",
					"numinlets" : 1,
					"numoutlets" : 0,
					"patching_rect" : [ 1200.734619, 833.238831, 46.0, 22.0 ],
					"style" : "",
					"text" : "s draw"
				}

			}
, 			{
				"box" : 				{
					"id" : "obj-80",
					"maxclass" : "newobj",
					"numinlets" : 1,
					"numoutlets" : 2,
					"outlettype" : [ "jit_matrix", "" ],
					"patching_rect" : [ 1328.734619, 801.876038, 247.0, 22.0 ],
					"style" : "",
					"text" : "jit.gl.videoplane preview @transform_reset 2"
				}

			}
, 			{
				"box" : 				{
					"id" : "obj-75",
					"maxclass" : "newobj",
					"numinlets" : 1,
					"numoutlets" : 2,
					"outlettype" : [ "bang", "" ],
					"patching_rect" : [ 1200.734619, 801.876038, 115.0, 22.0 ],
					"style" : "",
					"text" : "jit.gl.render preview"
				}

			}
, 			{
				"box" : 				{
					"id" : "obj-39",
					"maxclass" : "newobj",
					"numinlets" : 1,
					"numoutlets" : 2,
					"outlettype" : [ "bang", "erase" ],
					"patching_rect" : [ 1200.734619, 750.376038, 57.0, 22.0 ],
					"style" : "",
					"text" : "t b erase"
				}

			}
 ],
		"lines" : [ 			{
				"patchline" : 				{
					"destination" : [ "obj-5", 0 ],
					"disabled" : 0,
					"hidden" : 0,
					"midpoints" : [ 744.333496, 134.104492, 860.333374, 134.104492, 860.333374, -4.895508, 871.333496, -4.895508 ],
					"source" : [ "obj-2", 0 ]
				}

			}
, 			{
				"patchline" : 				{
					"destination" : [ "obj-195", 0 ],
					"disabled" : 0,
					"hidden" : 0,
					"midpoints" : [ 630.5, 726.0, 379.749756, 726.0 ],
					"source" : [ "obj-21", 0 ]
				}

			}
, 			{
				"patchline" : 				{
					"destination" : [ "obj-83", 0 ],
					"disabled" : 0,
					"hidden" : 0,
					"midpoints" : [ 630.5, 735.0, 652.749756, 735.0 ],
					"source" : [ "obj-21", 0 ]
				}

			}
, 			{
				"patchline" : 				{
					"destination" : [ "obj-21", 0 ],
					"disabled" : 0,
					"hidden" : 0,
					"midpoints" : [ 232.5, 669.0, 608.0, 669.0, 608.0, 507.0, 630.5, 507.0 ],
					"source" : [ "obj-24", 0 ]
				}

			}
, 			{
				"patchline" : 				{
					"destination" : [ "obj-39", 0 ],
					"disabled" : 0,
					"hidden" : 0,
					"midpoints" : [ 1399.234619, 744.02124, 1210.234619, 744.02124 ],
					"source" : [ "obj-27", 1 ]
				}

			}
, 			{
				"patchline" : 				{
					"destination" : [ "obj-80", 0 ],
					"disabled" : 0,
					"hidden" : 0,
					"source" : [ "obj-27", 0 ]
				}

			}
, 			{
				"patchline" : 				{
					"destination" : [ "obj-29", 0 ],
					"disabled" : 0,
					"hidden" : 0,
					"midpoints" : [ 630.5, 266.0, 630.5, 266.0 ],
					"source" : [ "obj-28", 0 ]
				}

			}
, 			{
				"patchline" : 				{
					"destination" : [ "obj-3", 0 ],
					"disabled" : 0,
					"hidden" : 0,
					"midpoints" : [ 630.5, 496.0, 606.0, 496.0, 606.0, 99.0, 232.5, 99.0 ],
					"source" : [ "obj-29", 0 ]
				}

			}
, 			{
				"patchline" : 				{
					"color" : [ 0.109804, 0.505882, 0.682353, 1.0 ],
					"destination" : [ "obj-4", 0 ],
					"disabled" : 0,
					"hidden" : 0,
					"source" : [ "obj-3", 0 ]
				}

			}
, 			{
				"patchline" : 				{
					"destination" : [ "obj-28", 0 ],
					"disabled" : 0,
					"hidden" : 0,
					"midpoints" : [ 871.333496, 384.0, 718.0, 384.0, 718.0, 99.0, 630.5, 99.0 ],
					"source" : [ "obj-30", 0 ]
				}

			}
, 			{
				"patchline" : 				{
					"destination" : [ "obj-75", 0 ],
					"disabled" : 0,
					"hidden" : 0,
					"source" : [ "obj-39", 1 ]
				}

			}
, 			{
				"patchline" : 				{
					"destination" : [ "obj-75", 0 ],
					"disabled" : 0,
					"hidden" : 0,
					"source" : [ "obj-39", 0 ]
				}

			}
, 			{
				"patchline" : 				{
					"destination" : [ "obj-97", 0 ],
					"disabled" : 0,
					"hidden" : 0,
					"midpoints" : [ 1210.234619, 788.02124, 1193.734619, 788.02124, 1193.734619, 826.02124, 1210.234619, 826.02124 ],
					"source" : [ "obj-39", 0 ]
				}

			}
, 			{
				"patchline" : 				{
					"destination" : [ "obj-24", 0 ],
					"disabled" : 0,
					"hidden" : 0,
					"source" : [ "obj-4", 0 ]
				}

			}
, 			{
				"patchline" : 				{
					"destination" : [ "obj-30", 0 ],
					"disabled" : 0,
					"hidden" : 0,
					"source" : [ "obj-5", 0 ]
				}

			}
, 			{
				"patchline" : 				{
					"destination" : [ "obj-83", 0 ],
					"disabled" : 0,
					"hidden" : 0,
					"source" : [ "obj-81", 0 ]
				}

			}
 ],
		"dependency_cache" : [ 			{
				"name" : "jit.hausu.playlister.maxpat",
				"bootpath" : "~/Documents/Max 7/Library/jit-hausu/abstractions",
				"type" : "JSON",
				"implicit" : 1
			}
, 			{
				"name" : "alien_test2",
				"bootpath" : "~/Documents/Max 7/Library/jit-hausu/playlists",
				"type" : "TEXT",
				"implicit" : 1
			}
, 			{
				"name" : "thru.maxpat",
				"bootpath" : "C74:/patchers/m4l/Pluggo for Live resources/patches",
				"type" : "JSON",
				"implicit" : 1
			}
, 			{
				"name" : "jit.hausu.randposition.maxpat",
				"bootpath" : "~/Documents/Max 7/Library/jit-hausu/abstractions",
				"type" : "JSON",
				"implicit" : 1
			}
, 			{
				"name" : "jit.hausu.pingpongrate.maxpat",
				"bootpath" : "~/Documents/Max 7/Library/jit-hausu/abstractions",
				"type" : "JSON",
				"implicit" : 1
			}
, 			{
				"name" : "jit.hausu.pixeldragger.maxpat",
				"bootpath" : "~/Documents/Max 7/Library/jit-hausu/abstractions",
				"type" : "JSON",
				"implicit" : 1
			}
, 			{
				"name" : "jit.hausu.freezeflicker.maxpat",
				"bootpath" : "~/Documents/Max 7/Library/jit-hausu/abstractions",
				"type" : "JSON",
				"implicit" : 1
			}
, 			{
				"name" : "jit.hausu.huerot.maxpat",
				"bootpath" : "~/Documents/Max 7/Library/jit-hausu/abstractions",
				"type" : "JSON",
				"implicit" : 1
			}
, 			{
				"name" : "jit.hausu.saturation.maxpat",
				"bootpath" : "~/Documents/Max 7/Library/jit-hausu/abstractions",
				"type" : "JSON",
				"implicit" : 1
			}
, 			{
				"name" : "jit.hausu.colorscale.maxpat",
				"bootpath" : "~/Documents/Max 7/Library/jit-hausu/abstractions",
				"type" : "JSON",
				"implicit" : 1
			}
, 			{
				"name" : "jit.hausu.tempo.maxpat",
				"bootpath" : "~/Documents/Max 7/Library/jit-hausu/abstractions",
				"type" : "JSON",
				"implicit" : 1
			}
, 			{
				"name" : "jit.hausu.brightnessgraph.maxpat",
				"bootpath" : "~/Documents/Max 7/Library/jit-hausu/abstractions",
				"type" : "JSON",
				"implicit" : 1
			}
, 			{
				"name" : "jit.hausu.framedelay.maxpat",
				"bootpath" : "~/Documents/Max 7/Library/jit-hausu/abstractions",
				"type" : "JSON",
				"implicit" : 1
			}
, 			{
				"name" : "vps.texlut.maxpat",
				"bootpath" : "~/Documents/Max 7/Library/jit-hausu",
				"type" : "JSON",
				"implicit" : 1
			}
, 			{
				"name" : "vps.texset.maxpat",
				"bootpath" : "~/Documents/Max 7/Library/jit-hausu",
				"type" : "JSON",
				"implicit" : 1
			}
, 			{
				"name" : "xfade.genjit",
				"bootpath" : "/Users/Shared/Max 7/Examples/jitter-examples/gen",
				"type" : "gJIT",
				"implicit" : 1
			}
, 			{
				"name" : "jit.hausu.gaussianblur.maxpat",
				"bootpath" : "~/Documents/Max 7/Library/jit-hausu/abstractions",
				"type" : "JSON",
				"implicit" : 1
			}
, 			{
				"name" : "jit.gl.slab.gauss6x.maxpat",
				"bootpath" : "/Users/Shared/Max 7/Examples/jitter-examples/render/slab",
				"type" : "JSON",
				"implicit" : 1
			}
, 			{
				"name" : "jit.hausu.xfade.maxpat",
				"bootpath" : "~/Documents/Max 7/Library/jit-hausu/abstractions",
				"type" : "JSON",
				"implicit" : 1
			}
, 			{
				"name" : "jit.hausu.bonk.maxpat",
				"bootpath" : "~/Documents/Max 7/Library/jit-hausu/abstractions",
				"type" : "JSON",
				"implicit" : 1
			}
, 			{
				"name" : "jit.hausu.audioinput.maxpat",
				"bootpath" : "~/Documents/Max 7/Library/jit-hausu/abstractions",
				"type" : "JSON",
				"implicit" : 1
			}
, 			{
				"name" : "jit.hausu.playbackcontroller.maxpat",
				"bootpath" : "~/Documents/Max 7/Library/jit-hausu/abstractions",
				"type" : "JSON",
				"implicit" : 1
			}
, 			{
				"name" : "jit.hausu.midicontroller.maxpat",
				"bootpath" : "~/Documents/Max 7/Library/jit-hausu/abstractions",
				"type" : "JSON",
				"implicit" : 1
			}
, 			{
				"name" : "jit.hausu.sharpen.maxpat",
				"bootpath" : "~/Documents/Max 7/Library/jit-hausu/abstractions",
				"type" : "JSON",
				"implicit" : 1
			}
, 			{
				"name" : "jit.gl.syphonserver.mxo",
				"type" : "iLaX"
			}
 ],
		"autosave" : 0,
		"styles" : [ 			{
				"name" : "AudioStatus_Menu",
				"default" : 				{
					"bgfillcolor" : 					{
						"type" : "color",
						"color" : [ 0.294118, 0.313726, 0.337255, 1 ],
						"color1" : [ 0.454902, 0.462745, 0.482353, 0.0 ],
						"color2" : [ 0.290196, 0.309804, 0.301961, 1.0 ],
						"angle" : 270.0,
						"proportion" : 0.39,
						"autogradient" : 0
					}

				}
,
				"parentstyle" : "",
				"multi" : 0
			}
 ]
	}

}
